<?xml version="1.0" encoding="utf-8"?>
<!-- Generator: Adobe Illustrator 15.0.2, SVG Export Plug-In . SVG Version: 6.00 Build 0)  -->
<!DOCTYPE svg PUBLIC "-//W3C//DTD SVG 1.1//EN" "http://www.w3.org/Graphics/SVG/1.1/DTD/svg11.dtd">
<svg version="1.1" id="Ebene_1" xmlns="http://www.w3.org/2000/svg" xmlns:xlink="http://www.w3.org/1999/xlink" x="0px" y="0px"
	 width="841.891px" height="595.275px" viewBox="0 0 841.891 595.275" enable-background="new 0 0 841.891 595.275"
	 xml:space="preserve">
<rect x="187.891" y="-429" fill="#E5B31B" width="190" height="190"/>
<rect x="187.891" y="-282" fill="#103E18" width="190" height="43"/>
<g>
	<path d="M202.095-289.837v-32.612h8.076c3.883,0,6.663,0.501,8.34,1.501c2.941,1.795,4.413,4.649,4.413,8.562
		c0,1.883-0.383,3.596-1.147,5.141c-0.766,1.545-1.809,2.729-3.133,3.553c-0.912,0.559-1.986,0.941-3.222,1.146
		c-1.235,0.207-3.017,0.31-5.34,0.31h-1.942v12.4H202.095z M208.14-308.019h1.766c2.354,0,4.001-0.249,4.943-0.75
		c1.323-0.735,1.985-1.912,1.985-3.53c0-1.029-0.251-1.904-0.751-2.626c-0.5-0.72-1.191-1.198-2.073-1.435
		c-0.913-0.205-2.192-0.309-3.839-0.309h-2.031V-308.019z"/>
	<path d="M252.138-314.285v24.448h-5.385v-3.177c-1.176,1.323-2.397,2.279-3.662,2.867c-1.266,0.589-2.752,0.883-4.457,0.883
		c-3.561,0-6.502-1.197-8.826-3.596s-3.486-5.436-3.486-9.113c0-3.736,1.17-6.818,3.508-9.245c2.34-2.427,5.318-3.641,8.938-3.641
		c3.383,0,6.045,1.28,7.986,3.839v-3.266H252.138z M244.547-307.356c-1.354-1.412-3.075-2.118-5.163-2.118
		c-2.09,0-3.803,0.714-5.141,2.141c-1.34,1.427-2.008,3.258-2.008,5.494c0,2.147,0.668,3.883,2.008,5.207
		c1.338,1.324,3.081,1.986,5.229,1.986c2.324,0,4.104-0.736,5.34-2.207c1.177-1.383,1.766-3.06,1.766-5.031
		C246.578-304.119,245.9-305.944,244.547-307.356z"/>
	<path d="M257.697-289.837v-24.448h5.385v2.383c0.765-1.117,1.521-1.889,2.272-2.316c0.75-0.426,1.757-0.64,3.022-0.64h0.441v5.648
		c-3.501,0.089-5.251,2.016-5.251,5.781v13.592H257.697z"/>
	<path d="M297.767-314.285v24.448h-5.384v-3.177c-1.177,1.323-2.397,2.279-3.663,2.867c-1.265,0.589-2.751,0.883-4.457,0.883
		c-3.56,0-6.502-1.197-8.826-3.596s-3.486-5.436-3.486-9.113c0-3.736,1.17-6.818,3.509-9.245s5.317-3.641,8.937-3.641
		c3.383,0,6.046,1.28,7.987,3.839v-3.266H297.767z M290.177-307.356c-1.354-1.412-3.075-2.118-5.164-2.118s-3.803,0.714-5.141,2.141
		c-1.339,1.427-2.008,3.258-2.008,5.494c0,2.147,0.669,3.883,2.008,5.207c1.338,1.324,3.082,1.986,5.229,1.986
		c2.323,0,4.104-0.736,5.34-2.207c1.177-1.383,1.765-3.06,1.765-5.031C292.207-304.119,291.53-305.944,290.177-307.356z"/>
	<path d="M303.327-289.837v-125.812h5.87v125.812H303.327z"/>
	<path d="M315.109-289.837v-125.812h5.869v125.812H315.109z"/>
	<path d="M351.119-299.457h-18.932c0.354,1.471,1.132,2.641,2.339,3.508c1.206,0.869,2.677,1.303,4.413,1.303
		c1.205,0,2.213-0.184,3.022-0.553c0.81-0.367,1.596-0.992,2.361-1.875h6.398c-0.353,1.089-1.001,2.222-1.941,3.398
		c-2.56,2.941-5.796,4.412-9.708,4.412c-3.737,0-6.878-1.221-9.422-3.662c-2.545-2.441-3.818-5.457-3.818-9.047
		c0-3.589,1.251-6.634,3.752-9.135c2.5-2.5,5.545-3.751,9.135-3.751c3.647,0,6.664,1.243,9.047,3.729s3.574,5.626,3.574,9.421
		C351.339-300.914,351.265-300.163,351.119-299.457z M332.01-304.62h13.548c-0.383-1.56-1.154-2.759-2.316-3.597
		c-1.163-0.838-2.641-1.258-4.436-1.258C335.246-309.475,332.981-307.856,332.01-304.62z"/>
	<path d="M356.326-289.837v-32.612h5.869v32.612H356.326z"/>
</g>
<g>
	<rect x="200.095" y="-273" fill="none" width="175.407" height="43.762"/>
	<path fill="#FFFFFF" d="M217.467-257.543h4.669c-0.832,1.953-2.142,3.5-3.93,4.64c-1.789,1.141-3.775,1.711-5.959,1.711
		c-3.132,0-5.795-1.087-7.989-3.263c-2.195-2.175-3.292-4.809-3.292-7.902c0-3.035,1.078-5.63,3.233-7.787
		c2.155-2.155,4.751-3.233,7.787-3.233c2.707,0,5.075,0.822,7.105,2.465c0.715,0.599,1.295,1.194,1.74,1.783
		c0.445,0.59,0.88,1.349,1.305,2.276h-4.437c-0.735-0.947-1.547-1.633-2.436-2.059c-0.89-0.425-1.953-0.638-3.19-0.638
		c-2.224,0-4.002,0.783-5.336,2.349c-1.18,1.373-1.769,2.997-1.769,4.872c0,2.011,0.706,3.731,2.117,5.162
		c1.411,1.431,3.103,2.146,5.075,2.146c1.044,0,1.972-0.193,2.784-0.58S216.597-256.634,217.467-257.543z"/>
	<path fill="#FFFFFF" d="M232.808-268.012c2.417,0,4.451,0.822,6.104,2.465c1.653,1.644,2.479,3.664,2.479,6.061
		c0,2.262-0.841,4.21-2.523,5.843c-1.682,1.634-3.693,2.451-6.032,2.451c-2.359,0-4.37-0.821-6.032-2.465
		c-1.663-1.643-2.494-3.625-2.494-5.945c0-2.3,0.831-4.277,2.494-5.93C228.467-267.186,230.468-268.012,232.808-268.012z
		 M232.837-264.474c-1.257,0-2.344,0.474-3.263,1.421s-1.377,2.079-1.377,3.393c0,1.373,0.454,2.537,1.363,3.494
		c0.908,0.957,2.01,1.436,3.306,1.436c1.276,0,2.368-0.473,3.277-1.421c0.908-0.947,1.363-2.098,1.363-3.451
		c0-1.334-0.455-2.479-1.363-3.437C235.234-263.995,234.132-264.474,232.837-264.474z"/>
	<path fill="#FFFFFF" d="M244.292-251.569v-16.066h3.538v1.508c0.561-0.676,1.16-1.16,1.798-1.45
		c0.638-0.29,1.431-0.435,2.378-0.435c2.107,0,3.683,0.832,4.727,2.494c1.257-1.662,2.977-2.494,5.162-2.494
		c1.218,0,2.306,0.222,3.263,0.667s1.687,1.073,2.189,1.885c0.696,1.102,1.044,2.639,1.044,4.611v9.28h-3.857v-8.816
		c0-1.508-0.242-2.542-0.725-3.103c-0.542-0.657-1.305-0.986-2.291-0.986c-1.276,0-2.175,0.512-2.697,1.537
		c-0.368,0.677-0.551,1.827-0.551,3.451v7.917h-3.857v-8.816c0-1.469-0.223-2.494-0.667-3.074c-0.561-0.676-1.382-1.015-2.465-1.015
		c-1.334,0-2.243,0.551-2.726,1.653c-0.271,0.696-0.406,1.808-0.406,3.335v7.917H244.292z"/>
	<path fill="#FFFFFF" d="M272.276-246.204v-21.431h3.538v1.885c1.295-1.508,3.055-2.262,5.278-2.262c2.32,0,4.234,0.788,5.742,2.363
		c1.508,1.576,2.262,3.572,2.262,5.989c0,2.436-0.759,4.457-2.277,6.061c-1.518,1.605-3.437,2.407-5.756,2.407
		c-1.895,0-3.538-0.628-4.93-1.885v6.873H272.276z M280.6-264.474c-1.334,0-2.451,0.464-3.35,1.392
		c-0.899,0.928-1.349,2.079-1.349,3.451c0,1.412,0.45,2.581,1.349,3.509c0.899,0.928,2.035,1.392,3.407,1.392
		c1.276,0,2.354-0.468,3.234-1.406c0.879-0.938,1.319-2.083,1.319-3.437c0-1.392-0.44-2.557-1.319-3.495
		C283.011-264.005,281.914-264.474,280.6-264.474z"/>
	<path fill="#FFFFFF" d="M306.438-267.635v16.066h-3.567v-1.537c-0.715,0.716-1.421,1.213-2.117,1.494
		c-0.696,0.28-1.528,0.42-2.494,0.42c-2.166,0-3.799-0.792-4.901-2.378c-0.445-0.677-0.759-1.416-0.943-2.219
		c-0.184-0.802-0.275-1.88-0.275-3.233v-8.613h3.857v7.859c0,2.03,0.261,3.374,0.783,4.031c0.502,0.677,1.256,1.015,2.262,1.015
		c1.373,0,2.349-0.493,2.929-1.479c0.406-0.618,0.609-1.904,0.609-3.857v-7.569H306.438z"/>
	<path fill="#FFFFFF" d="M310.846-251.569v-12.557h-1.885v-3.509h1.885V-273h3.857v5.365h2.32v3.509h-2.32v12.557H310.846z"/>
	<path fill="#FFFFFF" d="M319.691-269.375V-273h3.857v3.625H319.691z M319.691-251.569v-16.066h3.857v16.066H319.691z"/>
	<path fill="#FFFFFF" d="M327.375-251.569v-16.066h3.567v1.537c1.334-1.276,2.842-1.914,4.524-1.914c2.281,0,3.953,0.773,5.017,2.32
		c0.425,0.619,0.725,1.334,0.899,2.146c0.174,0.812,0.261,1.934,0.261,3.364v8.613h-3.857v-7.859c0-2.011-0.251-3.354-0.754-4.031
		c-0.522-0.676-1.295-1.015-2.32-1.015c-1.276,0-2.223,0.493-2.842,1.479c-0.425,0.677-0.638,1.962-0.638,3.857v7.569H327.375z"/>
	<path fill="#FFFFFF" d="M357.97-267.635h3.683v13.021c0,2.939-0.542,5.113-1.624,6.525c-1.547,1.953-3.78,2.929-6.699,2.929
		c-1.972,0-3.678-0.45-5.119-1.349s-2.489-2.151-3.146-3.755h4.379c0.561,0.618,1.146,1.058,1.755,1.319
		c0.609,0.261,1.367,0.392,2.276,0.392c2.861,0,4.359-1.711,4.495-5.133c-0.754,0.89-1.542,1.528-2.364,1.914
		c-0.822,0.387-1.793,0.58-2.915,0.58c-2.301,0-4.19-0.802-5.669-2.407c-1.479-1.604-2.218-3.644-2.218-6.119
		c0-2.378,0.749-4.354,2.248-5.931c1.498-1.575,3.388-2.363,5.669-2.363c2.32,0,4.069,0.802,5.249,2.407V-267.635z M353.156-264.474
		c-1.354,0-2.436,0.449-3.248,1.348s-1.218,2.093-1.218,3.582c0,1.47,0.411,2.639,1.232,3.509c0.822,0.87,1.919,1.305,3.292,1.305
		s2.479-0.439,3.321-1.319c0.841-0.879,1.261-2.044,1.261-3.495c0-1.469-0.43-2.658-1.291-3.567
		C355.645-264.02,354.529-264.474,353.156-264.474z"/>
</g>
<g>
	<path d="M451.038-238.865c0.479,0.252,1.247,0.503,2.027,0.503c0.839,0,1.283-0.348,1.283-0.875c0-0.503-0.384-0.792-1.355-1.127
		c-1.344-0.479-2.23-1.223-2.23-2.398c0-1.379,1.163-2.423,3.058-2.423c0.924,0,1.583,0.18,2.063,0.408l-0.408,1.463
		c-0.312-0.156-0.899-0.384-1.679-0.384c-0.792,0-1.176,0.372-1.176,0.78c0,0.516,0.444,0.743,1.499,1.139
		c1.428,0.528,2.087,1.271,2.087,2.411c0,1.355-1.031,2.507-3.25,2.507c-0.924,0-1.835-0.252-2.291-0.504L451.038-238.865z"/>
	<path d="M461.883-237.138c-0.323,0.156-0.936,0.276-1.631,0.276c-1.895,0-3.106-1.164-3.106-2.999c0-1.715,1.176-3.118,3.358-3.118
		c0.479,0,1.008,0.084,1.392,0.228l-0.288,1.355c-0.216-0.096-0.54-0.18-1.02-0.18c-0.96,0-1.583,0.684-1.571,1.643
		c0,1.067,0.72,1.643,1.607,1.643c0.432,0,0.768-0.072,1.043-0.192L461.883-237.138z"/>
	<path d="M462.894-245.497h1.823v3.358h0.023c0.192-0.264,0.433-0.468,0.72-0.612c0.276-0.144,0.612-0.228,0.948-0.228
		c1.163,0,2.051,0.803,2.051,2.579v3.418h-1.823v-3.226c0-0.768-0.264-1.295-0.947-1.295c-0.48,0-0.78,0.312-0.912,0.647
		c-0.048,0.108-0.06,0.264-0.06,0.396v3.478h-1.823V-245.497z"/>
	<path d="M469.926-240.916c0-0.864-0.012-1.427-0.048-1.931h1.56l0.071,1.08h0.048c0.3-0.864,1.008-1.224,1.584-1.224
		c0.167,0,0.251,0.012,0.384,0.036v1.715c-0.145-0.024-0.288-0.048-0.492-0.048c-0.672,0-1.127,0.36-1.247,0.923
		c-0.024,0.12-0.036,0.264-0.036,0.408v2.975h-1.823V-240.916z"/>
	<path d="M476.368-244.478c0,0.504-0.371,0.912-0.983,0.912c-0.575,0-0.947-0.408-0.947-0.912c0-0.516,0.384-0.911,0.972-0.911
		S476.356-244.994,476.368-244.478z M474.485-236.982v-5.865h1.823v5.865H474.485z"/>
	<path d="M477.989-236.982v-4.521h-0.779v-1.343h0.779v-0.228c0-0.708,0.216-1.487,0.731-1.967c0.468-0.432,1.092-0.588,1.632-0.588
		c0.396,0,0.707,0.06,0.959,0.12l-0.072,1.403c-0.155-0.048-0.348-0.084-0.587-0.084c-0.6,0-0.852,0.468-0.852,1.043v0.3h1.175
		v1.343h-1.163v4.521H477.989z"/>
	<path d="M484.084-244.43v1.583h1.308v1.343h-1.308v2.123c0,0.708,0.18,1.031,0.72,1.031c0.252,0,0.372-0.012,0.539-0.048
		l0.013,1.379c-0.229,0.084-0.672,0.156-1.176,0.156c-0.588,0-1.079-0.204-1.379-0.504c-0.336-0.348-0.504-0.912-0.504-1.739v-2.398
		h-0.779v-1.343h0.779v-1.091L484.084-244.43z"/>
	<path d="M486.354-241.827c0-0.444,0.3-0.756,0.708-0.756c0.432,0,0.707,0.312,0.707,0.756c0,0.419-0.275,0.744-0.72,0.744
		C486.642-241.083,486.354-241.408,486.354-241.827z M486.354-237.594c0-0.444,0.3-0.755,0.708-0.755
		c0.432,0,0.707,0.312,0.707,0.755c0,0.42-0.275,0.744-0.72,0.744C486.642-236.85,486.354-237.174,486.354-237.594z"/>
	<path d="M510.508-245.065v4.797c0,1.799,0.804,2.566,1.883,2.566c1.188,0,1.967-0.792,1.967-2.566v-4.797h1.056v4.725
		c0,2.483-1.308,3.49-3.059,3.49c-1.655,0-2.902-0.936-2.902-3.454v-4.761H510.508z"/>
	<path d="M517.228-244.958c0.528-0.096,1.296-0.168,2.003-0.168c1.116,0,1.848,0.216,2.339,0.66c0.396,0.36,0.636,0.912,0.636,1.547
		c0,1.055-0.672,1.763-1.511,2.051v0.036c0.611,0.216,0.983,0.792,1.175,1.631c0.264,1.127,0.456,1.907,0.624,2.219h-1.079
		c-0.133-0.24-0.312-0.923-0.528-1.931c-0.239-1.115-0.684-1.535-1.631-1.571h-0.983v3.502h-1.044V-244.958z M518.271-241.275h1.067
		c1.115,0,1.823-0.612,1.823-1.535c0-1.043-0.756-1.5-1.859-1.5c-0.504,0-0.852,0.036-1.031,0.084V-241.275z"/>
	<path d="M525.194-236.982l-2.051-8.083h1.104l0.96,4.09c0.239,1.007,0.455,2.015,0.6,2.794h0.023
		c0.132-0.804,0.384-1.763,0.66-2.807l1.079-4.078h1.092l0.983,4.102c0.228,0.959,0.443,1.919,0.563,2.771h0.023
		c0.168-0.887,0.396-1.787,0.648-2.794l1.067-4.078h1.067l-2.291,8.083h-1.092l-1.02-4.209c-0.251-1.032-0.419-1.823-0.527-2.639
		h-0.023c-0.133,0.803-0.324,1.595-0.624,2.639l-1.151,4.209H525.194z"/>
	<path d="M542.737-237.342c-0.468,0.18-1.403,0.444-2.495,0.444c-1.223,0-2.23-0.312-3.021-1.067
		c-0.696-0.672-1.128-1.751-1.128-3.01c0-2.411,1.667-4.174,4.378-4.174c0.936,0,1.679,0.204,2.026,0.372l-0.264,0.852
		c-0.432-0.204-0.972-0.348-1.787-0.348c-1.967,0-3.25,1.223-3.25,3.25c0,2.051,1.224,3.262,3.118,3.262
		c0.684,0,1.151-0.096,1.392-0.216v-2.411h-1.631v-0.839h2.662V-237.342z"/>
	<path d="M549.602-239.932c0,2.146-1.499,3.082-2.891,3.082c-1.56,0-2.782-1.151-2.782-2.986c0-1.931,1.283-3.07,2.878-3.07
		C548.474-242.907,549.602-241.695,549.602-239.932z M545.008-239.873c0,1.271,0.72,2.231,1.751,2.231
		c1.008,0,1.763-0.947,1.763-2.255c0-0.983-0.491-2.219-1.738-2.219C545.548-242.115,545.008-240.964,545.008-239.873z"/>
	<path d="M552.207-244.178v1.392h1.512v0.803h-1.512v3.13c0,0.72,0.204,1.127,0.792,1.127c0.288,0,0.456-0.024,0.611-0.072
		l0.048,0.803c-0.203,0.072-0.527,0.144-0.936,0.144c-0.491,0-0.887-0.168-1.139-0.444c-0.288-0.324-0.408-0.839-0.408-1.523v-3.167
		h-0.899v-0.803h0.899v-1.08L552.207-244.178z"/>
	<path d="M554.908-245.497h1.055v3.634h0.024c0.168-0.3,0.432-0.576,0.756-0.755c0.312-0.18,0.684-0.288,1.079-0.288
		c0.779,0,2.026,0.48,2.026,2.471v3.454h-1.055v-3.334c0-0.936-0.348-1.715-1.344-1.715c-0.684,0-1.211,0.48-1.415,1.043
		c-0.06,0.156-0.072,0.312-0.072,0.504v3.502h-1.055V-245.497z"/>
	<path d="M562.743-244.418c0,0.36-0.252,0.648-0.672,0.648c-0.384,0-0.636-0.288-0.636-0.648s0.265-0.66,0.66-0.66
		C562.479-245.078,562.743-244.79,562.743-244.418z M561.568-236.982v-5.805h1.055v5.805H561.568z"/>
	<path d="M568.514-237.186c-0.276,0.132-0.888,0.336-1.668,0.336c-1.751,0-2.89-1.188-2.89-2.962c0-1.787,1.223-3.094,3.118-3.094
		c0.623,0,1.175,0.156,1.463,0.312l-0.239,0.803c-0.252-0.132-0.648-0.275-1.224-0.275c-1.331,0-2.051,0.995-2.051,2.194
		c0,1.343,0.863,2.171,2.015,2.171c0.6,0,0.995-0.144,1.295-0.276L568.514-237.186z"/>
	<path d="M572.319-245.065h1.056v7.208h3.454v0.875h-4.51V-245.065z"/>
	<path d="M580.539-244.946c0.636-0.108,1.392-0.18,2.219-0.18c1.5,0,2.567,0.36,3.274,1.007c0.731,0.66,1.151,1.595,1.151,2.902
		c0,1.319-0.42,2.399-1.163,3.143c-0.768,0.755-2.015,1.163-3.586,1.163c-0.756,0-1.367-0.036-1.896-0.096V-244.946z
		 M581.583-237.797c0.264,0.036,0.647,0.048,1.056,0.048c2.242,0,3.441-1.247,3.441-3.43c0.013-1.907-1.067-3.118-3.273-3.118
		c-0.54,0-0.948,0.048-1.224,0.108V-237.797z"/>
	<path d="M589.131-239.692c0.024,1.427,0.924,2.015,1.991,2.015c0.756,0,1.224-0.132,1.607-0.3l0.191,0.756
		c-0.372,0.168-1.02,0.372-1.942,0.372c-1.787,0-2.854-1.188-2.854-2.938s1.031-3.118,2.723-3.118c1.906,0,2.398,1.655,2.398,2.723
		c0,0.216-0.012,0.372-0.036,0.492H589.131z M592.226-240.448c0.012-0.66-0.276-1.703-1.463-1.703c-1.08,0-1.535,0.971-1.619,1.703
		H592.226z"/>
	<path d="M594.556-241.216c0-0.611-0.024-1.091-0.049-1.571h0.924l0.048,0.947h0.036c0.324-0.552,0.863-1.067,1.835-1.067
		c0.779,0,1.379,0.48,1.631,1.164h0.024c0.18-0.336,0.42-0.576,0.659-0.756c0.349-0.264,0.72-0.408,1.271-0.408
		c0.779,0,1.919,0.504,1.919,2.519v3.406h-1.031v-3.274c0-1.127-0.42-1.787-1.26-1.787c-0.611,0-1.067,0.443-1.259,0.947
		c-0.048,0.156-0.084,0.336-0.084,0.528v3.586h-1.031v-3.478c0-0.923-0.408-1.583-1.212-1.583c-0.647,0-1.139,0.527-1.307,1.055
		c-0.061,0.144-0.084,0.336-0.084,0.516v3.49h-1.031V-241.216z"/>
	<path d="M605.738-244.418c0,0.36-0.252,0.648-0.672,0.648c-0.384,0-0.636-0.288-0.636-0.648s0.265-0.66,0.66-0.66
		C605.475-245.078,605.738-244.79,605.738-244.418z M604.563-236.982v-5.805h1.055v5.805H604.563z"/>
</g>
<g>
	<path d="M551.029-393.99l-2.051-8.083h1.104l0.96,4.09c0.239,1.007,0.455,2.015,0.6,2.794h0.023
		c0.132-0.804,0.384-1.763,0.66-2.807l1.079-4.078h1.092l0.983,4.102c0.228,0.959,0.443,1.919,0.563,2.771h0.023
		c0.168-0.887,0.396-1.787,0.648-2.794l1.067-4.078h1.067l-2.291,8.083h-1.092l-1.02-4.209c-0.251-1.032-0.419-1.823-0.527-2.639
		h-0.023c-0.133,0.803-0.324,1.595-0.624,2.639l-1.151,4.209H551.029z"/>
	<path d="M560.019-396.7c0.024,1.427,0.924,2.015,1.991,2.015c0.756,0,1.224-0.132,1.607-0.3l0.191,0.756
		c-0.372,0.168-1.02,0.372-1.942,0.372c-1.787,0-2.854-1.188-2.854-2.938s1.031-3.118,2.723-3.118c1.906,0,2.398,1.655,2.398,2.723
		c0,0.216-0.012,0.372-0.036,0.492H560.019z M563.113-397.456c0.012-0.66-0.276-1.703-1.463-1.703c-1.08,0-1.535,0.971-1.619,1.703
		H563.113z"/>
	<path d="M565.443-402.505h1.043v3.646h0.024c0.371-0.648,1.043-1.056,1.979-1.056c1.451,0,2.459,1.199,2.459,2.95
		c0,2.075-1.319,3.106-2.615,3.106c-0.839,0-1.511-0.324-1.955-1.079h-0.023l-0.06,0.947h-0.9c0.024-0.396,0.049-0.983,0.049-1.499
		V-402.505z M566.486-396.316c0,0.132,0.012,0.264,0.048,0.384c0.192,0.731,0.815,1.235,1.583,1.235
		c1.115,0,1.764-0.899,1.764-2.231c0-1.163-0.6-2.159-1.739-2.159c-0.708,0-1.38,0.504-1.596,1.295
		c-0.035,0.132-0.06,0.276-0.06,0.443V-396.316z"/>
	<path d="M572.031-398.835c0-0.444,0.3-0.756,0.707-0.756c0.433,0,0.708,0.312,0.708,0.756c0,0.419-0.275,0.744-0.72,0.744
		C572.319-398.091,572.031-398.416,572.031-398.835z M572.031-394.602c0-0.444,0.3-0.755,0.707-0.755
		c0.433,0,0.708,0.312,0.708,0.755c0,0.42-0.275,0.744-0.72,0.744C572.319-393.858,572.031-394.182,572.031-394.602z"/>
	<path d="M585.927-393.99l0.312-2.351h-0.996v-0.708h1.104l0.229-1.739h-1.044v-0.708h1.14l0.312-2.291h0.708l-0.312,2.291h1.26
		l0.3-2.291h0.708l-0.3,2.291h0.983v0.708h-1.092l-0.216,1.739h1.031v0.708h-1.14l-0.312,2.351h-0.72l0.312-2.351h-1.248l-0.3,2.351
		H585.927z M588.302-397.048l0.228-1.739h-1.247l-0.228,1.739H588.302z"/>
	<path d="M595.849-397.78h-3.13v2.915h3.502v0.875h-4.558v-8.083h4.378v0.875h-3.322v2.555h3.13V-397.78z"/>
	<path d="M601.861-400.898h-2.975l-0.3,2.003c0.18-0.024,0.348-0.036,0.636-0.036c0.611,0,1.199,0.12,1.679,0.42
		c0.612,0.336,1.115,1.02,1.115,1.991c0,1.523-1.211,2.663-2.902,2.663c-0.852,0-1.559-0.24-1.942-0.479l0.264-0.804
		c0.324,0.192,0.959,0.432,1.679,0.432c0.983,0,1.848-0.647,1.835-1.691c0-1.007-0.684-1.715-2.23-1.715
		c-0.456,0-0.804,0.036-1.092,0.072l0.504-3.742h3.73V-400.898z"/>
	<path d="M603.735-401.954c0.456-0.108,1.188-0.18,1.907-0.18c1.044,0,1.715,0.18,2.207,0.588c0.42,0.312,0.684,0.792,0.684,1.427
		c0,0.792-0.527,1.475-1.367,1.775v0.036c0.768,0.18,1.667,0.815,1.667,2.015c0,0.696-0.276,1.235-0.695,1.619
		c-0.552,0.516-1.464,0.755-2.783,0.755c-0.72,0-1.271-0.048-1.619-0.096V-401.954z M604.779-398.643h0.947
		c1.092,0,1.739-0.588,1.739-1.367c0-0.936-0.708-1.319-1.763-1.319c-0.48,0-0.756,0.036-0.924,0.072V-398.643z M604.779-394.781
		c0.216,0.036,0.504,0.048,0.875,0.048c1.08,0,2.075-0.396,2.075-1.571c0-1.091-0.947-1.559-2.087-1.559h-0.863V-394.781z"/>
	<path d="M610.12-395.189c0.3,0.18,0.983,0.479,1.727,0.479c1.344,0,1.775-0.852,1.763-1.511c-0.012-1.091-0.995-1.559-2.015-1.559
		h-0.588v-0.792h0.588c0.768,0,1.739-0.396,1.739-1.319c0-0.624-0.396-1.175-1.367-1.175c-0.624,0-1.224,0.276-1.56,0.516
		l-0.287-0.768c0.419-0.3,1.211-0.6,2.051-0.6c1.535,0,2.23,0.912,2.23,1.859c0,0.816-0.492,1.5-1.439,1.847v0.024
		c0.96,0.18,1.728,0.899,1.739,1.991c0,1.248-0.983,2.339-2.843,2.339c-0.875,0-1.643-0.276-2.026-0.528L610.12-395.189z"/>
	<path d="M618.314-400.802h-0.023l-1.355,0.732l-0.204-0.804l1.703-0.912h0.899v7.796h-1.02V-400.802z"/>
	<path d="M622.552-401.954c0.456-0.108,1.188-0.18,1.907-0.18c1.044,0,1.715,0.18,2.207,0.588c0.42,0.312,0.684,0.792,0.684,1.427
		c0,0.792-0.527,1.475-1.367,1.775v0.036c0.768,0.18,1.667,0.815,1.667,2.015c0,0.696-0.276,1.235-0.695,1.619
		c-0.552,0.516-1.464,0.755-2.783,0.755c-0.72,0-1.271-0.048-1.619-0.096V-401.954z M623.596-398.643h0.947
		c1.092,0,1.739-0.588,1.739-1.367c0-0.936-0.708-1.319-1.763-1.319c-0.48,0-0.756,0.036-0.924,0.072V-398.643z M623.596-394.781
		c0.216,0.036,0.504,0.048,0.875,0.048c1.08,0,2.075-0.396,2.075-1.571c0-1.091-0.947-1.559-2.087-1.559h-0.863V-394.781z"/>
	<path d="M555.348-376.242c-0.372,0.192-1.151,0.384-2.135,0.384c-2.279,0-3.982-1.439-3.982-4.102c0-2.542,1.715-4.246,4.222-4.246
		c0.995,0,1.644,0.216,1.919,0.36l-0.264,0.852c-0.384-0.192-0.947-0.336-1.619-0.336c-1.895,0-3.154,1.211-3.154,3.334
		c0,1.991,1.14,3.25,3.095,3.25c0.647,0,1.295-0.132,1.715-0.336L555.348-376.242z"/>
	<path d="M563.482-379.54c-0.06-1.127-0.132-2.495-0.132-3.49h-0.024c-0.287,0.936-0.611,1.955-1.019,3.07l-1.428,3.922h-0.791
		l-1.319-3.85c-0.384-1.151-0.696-2.183-0.924-3.142h-0.024c-0.023,1.007-0.084,2.351-0.155,3.574l-0.216,3.466h-0.996l0.564-8.083
		h1.331l1.379,3.91c0.336,0.996,0.6,1.883,0.815,2.723h0.024c0.216-0.815,0.504-1.703,0.863-2.723l1.439-3.91h1.331l0.504,8.083
		h-1.031L563.482-379.54z"/>
	<path d="M568.117-375.99v-3.43l-2.567-4.653h1.2l1.139,2.231c0.3,0.611,0.552,1.103,0.804,1.667h0.024
		c0.216-0.528,0.503-1.056,0.815-1.667l1.163-2.231h1.176l-2.699,4.642v3.442H568.117z"/>
	<path d="M572.726-384.073h1.044v3.898h0.036c0.216-0.312,0.432-0.6,0.636-0.864l2.471-3.034h1.295l-2.927,3.43l3.154,4.653h-1.235
		l-2.65-3.97l-0.779,0.887v3.083h-1.044V-384.073z"/>
	<path d="M579.218-380.835c0-0.444,0.3-0.756,0.708-0.756c0.432,0,0.707,0.312,0.707,0.756c0,0.419-0.275,0.744-0.72,0.744
		C579.506-380.091,579.218-380.416,579.218-380.835z M579.218-376.602c0-0.444,0.3-0.755,0.708-0.755
		c0.432,0,0.707,0.312,0.707,0.755c0,0.42-0.275,0.744-0.72,0.744C579.506-375.858,579.218-376.182,579.218-376.602z"/>
	<path d="M585.949-376.733c0.228,0.024,0.492,0,0.852-0.036c0.611-0.083,1.188-0.324,1.631-0.755
		c0.516-0.468,0.888-1.151,1.031-2.063h-0.035c-0.433,0.528-1.056,0.828-1.848,0.828c-1.391,0-2.29-1.055-2.29-2.387
		c0-1.475,1.067-2.771,2.662-2.771s2.578,1.283,2.578,3.298c0,1.703-0.575,2.902-1.343,3.646c-0.6,0.587-1.428,0.947-2.267,1.043
		c-0.384,0.06-0.72,0.072-0.972,0.06V-376.733z M586.333-381.207c0,0.972,0.588,1.655,1.499,1.655c0.708,0,1.26-0.348,1.535-0.815
		c0.061-0.108,0.096-0.216,0.096-0.396c0-1.331-0.491-2.351-1.606-2.351C586.969-383.114,586.333-382.322,586.333-381.207z"/>
	<path d="M590.942-375.522l3.334-8.695h0.827l-3.357,8.695H590.942z"/>
	<path d="M595.61-375.99v-0.647l0.827-0.804c1.991-1.895,2.902-2.902,2.902-4.078c0-0.792-0.372-1.523-1.535-1.523
		c-0.707,0-1.295,0.36-1.655,0.66l-0.336-0.744c0.528-0.444,1.308-0.792,2.195-0.792c1.679,0,2.387,1.151,2.387,2.267
		c0,1.439-1.044,2.603-2.687,4.186l-0.611,0.576v0.024h3.489v0.875H595.61z"/>
	<path d="M606.216-383.042c-0.216-0.012-0.492,0.012-0.792,0.06c-1.667,0.264-2.53,1.463-2.71,2.758h0.023
		c0.372-0.503,1.032-0.911,1.896-0.911c1.379,0,2.351,1.007,2.351,2.519c0,1.439-0.972,2.758-2.603,2.758
		c-1.655,0-2.746-1.295-2.746-3.322c0-1.535,0.539-2.746,1.318-3.514c0.648-0.636,1.512-1.032,2.495-1.151
		c0.312-0.048,0.575-0.06,0.768-0.06V-383.042z M605.916-378.544c0-1.115-0.636-1.787-1.607-1.787c-0.636,0-1.235,0.384-1.522,0.959
		c-0.061,0.12-0.108,0.264-0.108,0.456c0.012,1.283,0.611,2.243,1.728,2.243C605.305-376.673,605.916-377.429,605.916-378.544z"/>
	<path d="M607.371-375.522l3.334-8.695h0.827l-3.357,8.695H607.371z"/>
	<path d="M613.478-380.091c-0.875-0.408-1.247-1.08-1.247-1.751c0-1.235,1.044-2.075,2.423-2.075c1.511,0,2.278,0.936,2.278,1.919
		c0,0.66-0.335,1.379-1.295,1.823v0.036c0.972,0.384,1.571,1.08,1.571,2.015c0,1.367-1.163,2.267-2.65,2.267
		c-1.632,0-2.615-0.959-2.615-2.099c0-0.983,0.588-1.691,1.548-2.099L613.478-380.091z M616.141-378.017
		c0-0.936-0.66-1.403-1.715-1.703c-0.912,0.264-1.403,0.875-1.403,1.619c-0.036,0.78,0.563,1.475,1.559,1.475
		C615.529-376.625,616.141-377.213,616.141-378.017z M613.238-381.915c-0.012,0.78,0.588,1.199,1.487,1.439
		c0.671-0.228,1.187-0.708,1.187-1.416c0-0.624-0.371-1.271-1.318-1.271C613.718-383.162,613.238-382.586,613.238-381.915z"/>
	<path d="M618.807-376.733c0.228,0.024,0.492,0,0.852-0.036c0.611-0.083,1.188-0.324,1.631-0.755
		c0.516-0.468,0.888-1.151,1.031-2.063h-0.035c-0.433,0.528-1.056,0.828-1.848,0.828c-1.391,0-2.29-1.055-2.29-2.387
		c0-1.475,1.067-2.771,2.662-2.771s2.578,1.283,2.578,3.298c0,1.703-0.575,2.902-1.343,3.646c-0.6,0.587-1.428,0.947-2.267,1.043
		c-0.384,0.06-0.72,0.072-0.972,0.06V-376.733z M619.19-381.207c0,0.972,0.588,1.655,1.499,1.655c0.708,0,1.26-0.348,1.535-0.815
		c0.061-0.108,0.096-0.216,0.096-0.396c0-1.331-0.491-2.351-1.606-2.351C619.826-383.114,619.19-382.322,619.19-381.207z"/>
	<path d="M623.8-375.522l3.334-8.695h0.827l-3.357,8.695H623.8z"/>
	<path d="M630.758-382.802h-0.023l-1.355,0.732l-0.204-0.804l1.703-0.912h0.899v7.796h-1.02V-382.802z"/>
	<path d="M549.71-365.965c0.528-0.096,1.296-0.168,2.003-0.168c1.115,0,1.848,0.216,2.339,0.66c0.396,0.36,0.636,0.912,0.636,1.547
		c0,1.055-0.672,1.763-1.511,2.051v0.036c0.611,0.216,0.983,0.792,1.175,1.631c0.264,1.127,0.456,1.907,0.624,2.219h-1.079
		c-0.133-0.24-0.312-0.923-0.528-1.931c-0.239-1.115-0.684-1.535-1.631-1.571h-0.983v3.502h-1.044V-365.965z M550.754-362.283h1.067
		c1.115,0,1.823-0.612,1.823-1.535c0-1.043-0.756-1.5-1.859-1.5c-0.504,0-0.852,0.036-1.031,0.084V-362.283z"/>
	<path d="M562.367-358.35c-0.468,0.18-1.403,0.444-2.495,0.444c-1.223,0-2.23-0.312-3.021-1.067
		c-0.696-0.672-1.128-1.751-1.128-3.01c0-2.411,1.667-4.174,4.378-4.174c0.936,0,1.679,0.204,2.026,0.372l-0.264,0.852
		c-0.432-0.204-0.972-0.348-1.787-0.348c-1.967,0-3.25,1.223-3.25,3.25c0,2.051,1.224,3.262,3.118,3.262
		c0.684,0,1.151-0.096,1.392-0.216v-2.411h-1.631v-0.839h2.662V-358.35z"/>
	<path d="M563.954-365.954c0.456-0.108,1.188-0.18,1.907-0.18c1.044,0,1.715,0.18,2.207,0.588c0.42,0.312,0.684,0.792,0.684,1.427
		c0,0.792-0.527,1.475-1.367,1.775v0.036c0.768,0.18,1.667,0.815,1.667,2.015c0,0.696-0.276,1.235-0.695,1.619
		c-0.552,0.516-1.464,0.755-2.783,0.755c-0.72,0-1.271-0.048-1.619-0.096V-365.954z M564.998-362.643h0.947
		c1.092,0,1.739-0.588,1.739-1.367c0-0.936-0.708-1.319-1.763-1.319c-0.48,0-0.756,0.036-0.924,0.072V-362.643z M564.998-358.781
		c0.216,0.036,0.504,0.048,0.875,0.048c1.08,0,2.075-0.396,2.075-1.571c0-1.091-0.947-1.559-2.087-1.559h-0.863V-358.781z"/>
	<path d="M570.183-362.835c0-0.444,0.3-0.756,0.708-0.756c0.432,0,0.707,0.312,0.707,0.756c0,0.419-0.275,0.744-0.72,0.744
		C570.471-362.091,570.183-362.416,570.183-362.835z M570.183-358.602c0-0.444,0.3-0.755,0.708-0.755
		c0.432,0,0.707,0.312,0.707,0.755c0,0.42-0.275,0.744-0.72,0.744C570.471-357.858,570.183-358.182,570.183-358.602z"/>
	<path d="M585.339-357.99v-0.647l0.827-0.804c1.991-1.895,2.902-2.902,2.902-4.078c0-0.792-0.372-1.523-1.535-1.523
		c-0.707,0-1.295,0.36-1.655,0.66l-0.336-0.744c0.528-0.444,1.308-0.792,2.195-0.792c1.679,0,2.387,1.151,2.387,2.267
		c0,1.439-1.044,2.603-2.687,4.186l-0.611,0.576v0.024h3.489v0.875H585.339z"/>
	<path d="M591.495-357.99v-0.647l0.827-0.804c1.991-1.895,2.902-2.902,2.902-4.078c0-0.792-0.372-1.523-1.535-1.523
		c-0.707,0-1.295,0.36-1.655,0.66l-0.336-0.744c0.528-0.444,1.308-0.792,2.195-0.792c1.679,0,2.387,1.151,2.387,2.267
		c0,1.439-1.044,2.603-2.687,4.186l-0.611,0.576v0.024h3.489v0.875H591.495z"/>
	<path d="M598.263-358.733c0.228,0.024,0.492,0,0.852-0.036c0.611-0.083,1.188-0.324,1.631-0.755
		c0.516-0.468,0.888-1.151,1.031-2.063h-0.035c-0.433,0.528-1.056,0.828-1.848,0.828c-1.391,0-2.29-1.055-2.29-2.387
		c0-1.475,1.067-2.771,2.662-2.771s2.578,1.283,2.578,3.298c0,1.703-0.575,2.902-1.343,3.646c-0.6,0.587-1.428,0.947-2.267,1.043
		c-0.384,0.06-0.72,0.072-0.972,0.06V-358.733z M598.646-363.207c0,0.972,0.588,1.655,1.499,1.655c0.708,0,1.26-0.348,1.535-0.815
		c0.061-0.108,0.096-0.216,0.096-0.396c0-1.331-0.491-2.351-1.606-2.351C599.282-365.114,598.646-364.322,598.646-363.207z"/>
	<path d="M603.256-357.522l3.334-8.695h0.827l-3.357,8.695H603.256z"/>
	<path d="M610.214-364.802h-0.023l-1.355,0.732l-0.204-0.804l1.703-0.912h0.899v7.796h-1.02V-364.802z"/>
	<path d="M619.141-365.786v0.696l-3.394,7.1h-1.092l3.382-6.896v-0.024h-3.813v-0.875H619.141z"/>
	<path d="M620.848-358.733c0.228,0.024,0.492,0,0.852-0.036c0.611-0.083,1.188-0.324,1.631-0.755
		c0.516-0.468,0.888-1.151,1.031-2.063h-0.035c-0.433,0.528-1.056,0.828-1.848,0.828c-1.391,0-2.29-1.055-2.29-2.387
		c0-1.475,1.067-2.771,2.662-2.771s2.578,1.283,2.578,3.298c0,1.703-0.575,2.902-1.343,3.646c-0.6,0.587-1.428,0.947-2.267,1.043
		c-0.384,0.06-0.72,0.072-0.972,0.06V-358.733z M621.231-363.207c0,0.972,0.588,1.655,1.499,1.655c0.708,0,1.26-0.348,1.535-0.815
		c0.061-0.108,0.096-0.216,0.096-0.396c0-1.331-0.491-2.351-1.606-2.351C621.867-365.114,621.231-364.322,621.231-363.207z"/>
	<path d="M625.841-357.522l3.334-8.695h0.827l-3.357,8.695H625.841z"/>
	<path d="M630.509-357.99v-0.647l0.827-0.804c1.991-1.895,2.902-2.902,2.902-4.078c0-0.792-0.372-1.523-1.535-1.523
		c-0.707,0-1.295,0.36-1.655,0.66l-0.336-0.744c0.528-0.444,1.308-0.792,2.195-0.792c1.679,0,2.387,1.151,2.387,2.267
		c0,1.439-1.044,2.603-2.687,4.186l-0.611,0.576v0.024h3.489v0.875H630.509z"/>
	<path d="M641.726-365.786v0.696l-3.394,7.1h-1.092l3.382-6.896v-0.024h-3.813v-0.875H641.726z"/>
</g>
<rect x="477.891" y="-403" fill="#E5B31B" width="45" height="45"/>
<g>
</g>
<g>
	<path d="M420.936-401.073h4.929v1.499h-3.105v1.847h2.902v1.487h-2.902v3.25h-1.823V-401.073z"/>
	<path d="M431.602-394.404c0,0.552,0.023,1.091,0.096,1.415h-1.644l-0.107-0.588h-0.036c-0.384,0.468-0.983,0.72-1.679,0.72
		c-1.188,0-1.896-0.863-1.896-1.799c0-1.523,1.367-2.243,3.442-2.243v-0.072c0-0.324-0.168-0.768-1.067-0.768
		c-0.6,0-1.235,0.204-1.619,0.444l-0.336-1.175c0.408-0.228,1.211-0.528,2.278-0.528c1.955,0,2.567,1.151,2.567,2.542V-394.404z
		 M429.838-395.76c-0.959,0-1.703,0.228-1.703,0.923c0,0.468,0.312,0.696,0.72,0.696c0.444,0,0.828-0.3,0.947-0.672
		c0.024-0.096,0.036-0.204,0.036-0.312V-395.76z"/>
	<path d="M433.056-396.923c0-0.864-0.012-1.427-0.048-1.931h1.56l0.071,1.08h0.048c0.3-0.864,1.008-1.224,1.584-1.224
		c0.167,0,0.251,0.012,0.384,0.036v1.715c-0.145-0.024-0.288-0.048-0.492-0.048c-0.672,0-1.127,0.36-1.247,0.923
		c-0.024,0.12-0.036,0.264-0.036,0.408v2.975h-1.823V-396.923z"/>
	<path d="M437.579-401.504h1.823v3.346h0.023c0.349-0.504,0.96-0.828,1.775-0.828c1.403,0,2.423,1.163,2.411,2.962
		c0,2.111-1.332,3.166-2.675,3.166c-0.684,0-1.355-0.252-1.763-0.947h-0.024l-0.072,0.815h-1.547
		c0.024-0.384,0.048-1.091,0.048-1.751V-401.504z M439.402-395.484c0,0.12,0.012,0.228,0.036,0.324
		c0.12,0.48,0.539,0.864,1.067,0.864c0.779,0,1.259-0.6,1.259-1.655c0-0.912-0.407-1.631-1.259-1.631
		c-0.492,0-0.947,0.372-1.067,0.899c-0.024,0.108-0.036,0.216-0.036,0.335V-395.484z"/>
	<path d="M446.194-395.34c0.048,0.755,0.804,1.115,1.655,1.115c0.624,0,1.127-0.084,1.619-0.252l0.239,1.235
		c-0.6,0.252-1.331,0.372-2.122,0.372c-1.991,0-3.131-1.151-3.131-2.986c0-1.487,0.924-3.13,2.963-3.13
		c1.895,0,2.614,1.475,2.614,2.926c0,0.312-0.036,0.588-0.06,0.72H446.194z M448.341-396.587c0-0.444-0.191-1.187-1.031-1.187
		c-0.768,0-1.079,0.708-1.127,1.187H448.341z"/>
	<path d="M451.127-396.983c0-0.732-0.023-1.343-0.048-1.871h1.583l0.084,0.815h0.036c0.24-0.384,0.827-0.947,1.811-0.947
		c1.2,0,2.1,0.803,2.1,2.53v3.466h-1.823v-3.25c0-0.756-0.264-1.271-0.924-1.271c-0.504,0-0.804,0.348-0.936,0.684
		c-0.048,0.12-0.06,0.288-0.06,0.456v3.382h-1.823V-396.983z"/>
	<path d="M458.063-397.834c0-0.444,0.3-0.756,0.707-0.756c0.433,0,0.708,0.312,0.708,0.756c0,0.419-0.275,0.744-0.72,0.744
		C458.352-397.091,458.063-397.415,458.063-397.834z M458.063-393.601c0-0.444,0.3-0.755,0.707-0.755
		c0.433,0,0.708,0.312,0.708,0.755c0,0.42-0.275,0.744-0.72,0.744C458.352-392.857,458.063-393.181,458.063-393.601z"/>
</g>
<g>
	<path d="M551.029-327.99l-2.051-8.083h1.104l0.96,4.09c0.239,1.007,0.455,2.015,0.6,2.794h0.023
		c0.132-0.804,0.384-1.763,0.66-2.807l1.079-4.078h1.092l0.983,4.102c0.228,0.959,0.443,1.919,0.563,2.771h0.023
		c0.168-0.887,0.396-1.787,0.648-2.794l1.067-4.078h1.067l-2.291,8.083h-1.092l-1.02-4.209c-0.251-1.032-0.419-1.823-0.527-2.639
		h-0.023c-0.133,0.803-0.324,1.595-0.624,2.639l-1.151,4.209H551.029z"/>
	<path d="M560.019-330.7c0.024,1.427,0.924,2.015,1.991,2.015c0.756,0,1.224-0.132,1.607-0.3l0.191,0.756
		c-0.372,0.168-1.02,0.372-1.942,0.372c-1.787,0-2.854-1.188-2.854-2.938s1.031-3.118,2.723-3.118c1.906,0,2.398,1.655,2.398,2.723
		c0,0.216-0.012,0.372-0.036,0.492H560.019z M563.113-331.456c0.012-0.66-0.276-1.703-1.463-1.703c-1.08,0-1.535,0.971-1.619,1.703
		H563.113z"/>
	<path d="M565.443-336.505h1.043v3.646h0.024c0.371-0.648,1.043-1.056,1.979-1.056c1.451,0,2.459,1.199,2.459,2.95
		c0,2.075-1.319,3.106-2.615,3.106c-0.839,0-1.511-0.324-1.955-1.079h-0.023l-0.06,0.947h-0.9c0.024-0.396,0.049-0.983,0.049-1.499
		V-336.505z M566.486-330.316c0,0.132,0.012,0.264,0.048,0.384c0.192,0.731,0.815,1.235,1.583,1.235
		c1.115,0,1.764-0.899,1.764-2.231c0-1.163-0.6-2.159-1.739-2.159c-0.708,0-1.38,0.504-1.596,1.295
		c-0.035,0.132-0.06,0.276-0.06,0.443V-330.316z"/>
	<path d="M572.031-332.835c0-0.444,0.3-0.756,0.707-0.756c0.433,0,0.708,0.312,0.708,0.756c0,0.419-0.275,0.744-0.72,0.744
		C572.319-332.091,572.031-332.416,572.031-332.835z M572.031-328.602c0-0.444,0.3-0.755,0.707-0.755
		c0.433,0,0.708,0.312,0.708,0.755c0,0.42-0.275,0.744-0.72,0.744C572.319-327.858,572.031-328.182,572.031-328.602z"/>
	<path d="M585.927-327.99l0.312-2.351h-0.996v-0.708h1.104l0.229-1.739h-1.044v-0.708h1.14l0.312-2.291h0.708l-0.312,2.291h1.26
		l0.3-2.291h0.708l-0.3,2.291h0.983v0.708h-1.092l-0.216,1.739h1.031v0.708h-1.14l-0.312,2.351h-0.72l0.312-2.351h-1.248l-0.3,2.351
		H585.927z M588.302-331.048l0.228-1.739h-1.247l-0.228,1.739H588.302z"/>
	<path d="M593.594-334.802h-0.023l-1.355,0.732l-0.204-0.804l1.703-0.912h0.899v7.796h-1.02V-334.802z"/>
	<path d="M602.652-331.972c0,2.651-0.995,4.114-2.71,4.114c-1.523,0-2.566-1.427-2.591-4.006c0-2.626,1.14-4.054,2.723-4.054
		C601.705-335.917,602.652-334.454,602.652-331.972z M598.419-331.852c0,2.027,0.624,3.178,1.583,3.178
		c1.067,0,1.583-1.259,1.583-3.25c0-1.919-0.479-3.179-1.583-3.179C599.091-335.102,598.419-333.975,598.419-331.852z"/>
	<path d="M603.868-329.189c0.3,0.18,0.983,0.479,1.727,0.479c1.344,0,1.775-0.852,1.763-1.511c-0.012-1.091-0.995-1.559-2.015-1.559
		h-0.588v-0.792h0.588c0.768,0,1.739-0.396,1.739-1.319c0-0.624-0.396-1.175-1.367-1.175c-0.624,0-1.224,0.276-1.56,0.516
		l-0.287-0.768c0.419-0.3,1.211-0.6,2.051-0.6c1.535,0,2.23,0.912,2.23,1.859c0,0.816-0.492,1.5-1.439,1.847v0.024
		c0.96,0.18,1.728,0.899,1.739,1.991c0,1.248-0.983,2.339-2.843,2.339c-0.875,0-1.643-0.276-2.026-0.528L603.868-329.189z"/>
	<path d="M614.317-331.78h-3.13v2.915h3.502v0.875h-4.558v-8.083h4.378v0.875h-3.322v2.555h3.13V-331.78z"/>
	<path d="M617.967-334.802h-0.023l-1.355,0.732l-0.204-0.804l1.703-0.912h0.899v7.796h-1.02V-334.802z"/>
	<path d="M623.271-332.091c-0.875-0.408-1.247-1.08-1.247-1.751c0-1.235,1.044-2.075,2.423-2.075c1.511,0,2.278,0.936,2.278,1.919
		c0,0.66-0.335,1.379-1.295,1.823v0.036c0.972,0.384,1.571,1.08,1.571,2.015c0,1.367-1.163,2.267-2.65,2.267
		c-1.632,0-2.615-0.959-2.615-2.099c0-0.983,0.588-1.691,1.548-2.099L623.271-332.091z M625.935-330.017
		c0-0.936-0.66-1.403-1.715-1.703c-0.912,0.264-1.403,0.875-1.403,1.619c-0.036,0.78,0.563,1.475,1.559,1.475
		C625.322-328.625,625.935-329.213,625.935-330.017z M623.032-333.915c-0.013,0.78,0.588,1.199,1.487,1.439
		c0.671-0.228,1.188-0.708,1.188-1.416c0-0.624-0.372-1.271-1.319-1.271C623.512-335.162,623.032-334.586,623.032-333.915z"/>
	<path d="M555.348-310.242c-0.372,0.192-1.151,0.384-2.135,0.384c-2.279,0-3.982-1.439-3.982-4.102c0-2.542,1.715-4.246,4.222-4.246
		c0.995,0,1.644,0.216,1.919,0.36l-0.264,0.852c-0.384-0.192-0.947-0.336-1.619-0.336c-1.895,0-3.154,1.211-3.154,3.334
		c0,1.991,1.14,3.25,3.095,3.25c0.647,0,1.295-0.132,1.715-0.336L555.348-310.242z"/>
	<path d="M563.482-313.54c-0.06-1.127-0.132-2.495-0.132-3.49h-0.024c-0.287,0.936-0.611,1.955-1.019,3.07l-1.428,3.922h-0.791
		l-1.319-3.85c-0.384-1.151-0.696-2.183-0.924-3.142h-0.024c-0.023,1.007-0.084,2.351-0.155,3.574l-0.216,3.466h-0.996l0.564-8.083
		h1.331l1.379,3.91c0.336,0.996,0.6,1.883,0.815,2.723h0.024c0.216-0.815,0.504-1.703,0.863-2.723l1.439-3.91h1.331l0.504,8.083
		h-1.031L563.482-313.54z"/>
	<path d="M568.117-309.99v-3.43l-2.567-4.653h1.2l1.139,2.231c0.3,0.611,0.552,1.103,0.804,1.667h0.024
		c0.216-0.528,0.503-1.056,0.815-1.667l1.163-2.231h1.176l-2.699,4.642v3.442H568.117z"/>
	<path d="M572.726-318.073h1.044v3.898h0.036c0.216-0.312,0.432-0.6,0.636-0.864l2.471-3.034h1.295l-2.927,3.43l3.154,4.653h-1.235
		l-2.65-3.97l-0.779,0.887v3.083h-1.044V-318.073z"/>
	<path d="M579.218-314.835c0-0.444,0.3-0.756,0.708-0.756c0.432,0,0.707,0.312,0.707,0.756c0,0.419-0.275,0.744-0.72,0.744
		C579.506-314.091,579.218-314.416,579.218-314.835z M579.218-310.602c0-0.444,0.3-0.755,0.708-0.755
		c0.432,0,0.707,0.312,0.707,0.755c0,0.42-0.275,0.744-0.72,0.744C579.506-309.858,579.218-310.182,579.218-310.602z"/>
	<path d="M585.949-310.733c0.228,0.024,0.492,0,0.852-0.036c0.611-0.083,1.188-0.324,1.631-0.755
		c0.516-0.468,0.888-1.151,1.031-2.063h-0.035c-0.433,0.528-1.056,0.828-1.848,0.828c-1.391,0-2.29-1.055-2.29-2.387
		c0-1.475,1.067-2.771,2.662-2.771s2.578,1.283,2.578,3.298c0,1.703-0.575,2.902-1.343,3.646c-0.6,0.587-1.428,0.947-2.267,1.043
		c-0.384,0.06-0.72,0.072-0.972,0.06V-310.733z M586.333-315.207c0,0.972,0.588,1.655,1.499,1.655c0.708,0,1.26-0.348,1.535-0.815
		c0.061-0.108,0.096-0.216,0.096-0.396c0-1.331-0.491-2.351-1.606-2.351C586.969-317.114,586.333-316.322,586.333-315.207z"/>
	<path d="M591.494-309.99v-0.647l0.827-0.804c1.991-1.895,2.902-2.902,2.902-4.078c0-0.792-0.372-1.523-1.535-1.523
		c-0.707,0-1.295,0.36-1.655,0.66l-0.336-0.744c0.528-0.444,1.308-0.792,2.195-0.792c1.679,0,2.387,1.151,2.387,2.267
		c0,1.439-1.044,2.603-2.687,4.186l-0.611,0.576v0.024h3.489v0.875H591.494z"/>
	<path d="M597.099-309.522l3.334-8.695h0.827l-3.357,8.695H597.099z"/>
	<path d="M602.019-311.189c0.3,0.18,0.983,0.479,1.727,0.479c1.344,0,1.775-0.852,1.763-1.511c-0.012-1.091-0.995-1.559-2.015-1.559
		h-0.588v-0.792h0.588c0.768,0,1.739-0.396,1.739-1.319c0-0.624-0.396-1.175-1.367-1.175c-0.624,0-1.224,0.276-1.56,0.516
		l-0.287-0.768c0.419-0.3,1.211-0.6,2.051-0.6c1.535,0,2.23,0.912,2.23,1.859c0,0.816-0.492,1.5-1.439,1.847v0.024
		c0.96,0.18,1.728,0.899,1.739,1.991c0,1.248-0.983,2.339-2.843,2.339c-0.875,0-1.643-0.276-2.026-0.528L602.019-311.189z"/>
	<path d="M609.361-314.091c-0.875-0.408-1.247-1.08-1.247-1.751c0-1.235,1.044-2.075,2.423-2.075c1.511,0,2.278,0.936,2.278,1.919
		c0,0.66-0.335,1.379-1.295,1.823v0.036c0.972,0.384,1.571,1.08,1.571,2.015c0,1.367-1.163,2.267-2.65,2.267
		c-1.632,0-2.615-0.959-2.615-2.099c0-0.983,0.588-1.691,1.548-2.099L609.361-314.091z M612.024-312.017
		c0-0.936-0.66-1.403-1.715-1.703c-0.912,0.264-1.403,0.875-1.403,1.619c-0.036,0.78,0.563,1.475,1.559,1.475
		C611.412-310.625,612.024-311.213,612.024-312.017z M609.122-315.915c-0.013,0.78,0.588,1.199,1.487,1.439
		c0.671-0.228,1.188-0.708,1.188-1.416c0-0.624-0.372-1.271-1.319-1.271C609.602-317.162,609.122-316.586,609.122-315.915z"/>
	<path d="M613.527-309.522l3.334-8.695h0.827l-3.357,8.695H613.527z"/>
	<path d="M618.807-310.733c0.228,0.024,0.492,0,0.852-0.036c0.611-0.083,1.188-0.324,1.631-0.755
		c0.516-0.468,0.888-1.151,1.031-2.063h-0.035c-0.433,0.528-1.056,0.828-1.848,0.828c-1.391,0-2.29-1.055-2.29-2.387
		c0-1.475,1.067-2.771,2.662-2.771s2.578,1.283,2.578,3.298c0,1.703-0.575,2.902-1.343,3.646c-0.6,0.587-1.428,0.947-2.267,1.043
		c-0.384,0.06-0.72,0.072-0.972,0.06V-310.733z M619.19-315.207c0,0.972,0.588,1.655,1.499,1.655c0.708,0,1.26-0.348,1.535-0.815
		c0.061-0.108,0.096-0.216,0.096-0.396c0-1.331-0.491-2.351-1.606-2.351C619.826-317.114,619.19-316.322,619.19-315.207z"/>
	<path d="M629.412-317.786v0.696l-3.394,7.1h-1.092l3.382-6.896v-0.024h-3.813v-0.875H629.412z"/>
	<path d="M629.956-309.522l3.334-8.695h0.827l-3.357,8.695H629.956z"/>
	<path d="M634.876-311.189c0.3,0.18,0.983,0.479,1.727,0.479c1.344,0,1.775-0.852,1.763-1.511c-0.012-1.091-0.995-1.559-2.015-1.559
		h-0.588v-0.792h0.588c0.768,0,1.739-0.396,1.739-1.319c0-0.624-0.396-1.175-1.367-1.175c-0.624,0-1.224,0.276-1.56,0.516
		l-0.287-0.768c0.419-0.3,1.211-0.6,2.051-0.6c1.535,0,2.23,0.912,2.23,1.859c0,0.816-0.492,1.5-1.439,1.847v0.024
		c0.96,0.18,1.728,0.899,1.739,1.991c0,1.248-0.983,2.339-2.843,2.339c-0.875,0-1.643-0.276-2.026-0.528L634.876-311.189z"/>
	<path d="M641.032-311.189c0.3,0.18,0.983,0.479,1.727,0.479c1.344,0,1.775-0.852,1.763-1.511c-0.012-1.091-0.995-1.559-2.015-1.559
		h-0.588v-0.792h0.588c0.768,0,1.739-0.396,1.739-1.319c0-0.624-0.396-1.175-1.367-1.175c-0.624,0-1.224,0.276-1.56,0.516
		l-0.287-0.768c0.419-0.3,1.211-0.6,2.051-0.6c1.535,0,2.23,0.912,2.23,1.859c0,0.816-0.492,1.5-1.439,1.847v0.024
		c0.96,0.18,1.728,0.899,1.739,1.991c0,1.248-0.983,2.339-2.843,2.339c-0.875,0-1.643-0.276-2.026-0.528L641.032-311.189z"/>
	<path d="M549.71-299.965c0.528-0.096,1.296-0.168,2.003-0.168c1.115,0,1.848,0.216,2.339,0.66c0.396,0.36,0.636,0.912,0.636,1.547
		c0,1.055-0.672,1.763-1.511,2.051v0.036c0.611,0.216,0.983,0.792,1.175,1.631c0.264,1.127,0.456,1.907,0.624,2.219h-1.079
		c-0.133-0.24-0.312-0.923-0.528-1.931c-0.239-1.115-0.684-1.535-1.631-1.571h-0.983v3.502h-1.044V-299.965z M550.754-296.283h1.067
		c1.115,0,1.823-0.612,1.823-1.535c0-1.043-0.756-1.5-1.859-1.5c-0.504,0-0.852,0.036-1.031,0.084V-296.283z"/>
	<path d="M562.367-292.35c-0.468,0.18-1.403,0.444-2.495,0.444c-1.223,0-2.23-0.312-3.021-1.067
		c-0.696-0.672-1.128-1.751-1.128-3.01c0-2.411,1.667-4.174,4.378-4.174c0.936,0,1.679,0.204,2.026,0.372l-0.264,0.852
		c-0.432-0.204-0.972-0.348-1.787-0.348c-1.967,0-3.25,1.223-3.25,3.25c0,2.051,1.224,3.262,3.118,3.262
		c0.684,0,1.151-0.096,1.392-0.216v-2.411h-1.631v-0.839h2.662V-292.35z"/>
	<path d="M563.954-299.954c0.456-0.108,1.188-0.18,1.907-0.18c1.044,0,1.715,0.18,2.207,0.588c0.42,0.312,0.684,0.792,0.684,1.427
		c0,0.792-0.527,1.475-1.367,1.775v0.036c0.768,0.18,1.667,0.815,1.667,2.015c0,0.696-0.276,1.235-0.695,1.619
		c-0.552,0.516-1.464,0.755-2.783,0.755c-0.72,0-1.271-0.048-1.619-0.096V-299.954z M564.998-296.643h0.947
		c1.092,0,1.739-0.588,1.739-1.367c0-0.936-0.708-1.319-1.763-1.319c-0.48,0-0.756,0.036-0.924,0.072V-296.643z M564.998-292.781
		c0.216,0.036,0.504,0.048,0.875,0.048c1.08,0,2.075-0.396,2.075-1.571c0-1.091-0.947-1.559-2.087-1.559h-0.863V-292.781z"/>
	<path d="M570.183-296.835c0-0.444,0.3-0.756,0.708-0.756c0.432,0,0.707,0.312,0.707,0.756c0,0.419-0.275,0.744-0.72,0.744
		C570.471-296.091,570.183-296.416,570.183-296.835z M570.183-292.602c0-0.444,0.3-0.755,0.708-0.755
		c0.432,0,0.707,0.312,0.707,0.755c0,0.42-0.275,0.744-0.72,0.744C570.471-291.858,570.183-292.182,570.183-292.602z"/>
	<path d="M587.629-298.802h-0.023l-1.355,0.732l-0.204-0.804l1.703-0.912h0.899v7.796h-1.02V-298.802z"/>
	<path d="M595.944-299.042c-0.216-0.012-0.492,0.012-0.792,0.06c-1.667,0.264-2.53,1.463-2.71,2.758h0.023
		c0.372-0.503,1.032-0.911,1.896-0.911c1.379,0,2.351,1.007,2.351,2.519c0,1.439-0.972,2.758-2.603,2.758
		c-1.655,0-2.746-1.295-2.746-3.322c0-1.535,0.539-2.746,1.318-3.514c0.648-0.636,1.512-1.032,2.495-1.151
		c0.312-0.048,0.575-0.06,0.768-0.06V-299.042z M595.645-294.544c0-1.115-0.636-1.787-1.607-1.787c-0.636,0-1.235,0.384-1.522,0.959
		c-0.061,0.12-0.108,0.264-0.108,0.456c0.012,1.283,0.611,2.243,1.728,2.243C595.033-292.673,595.645-293.429,595.645-294.544z"/>
	<path d="M597.1-291.522l3.334-8.695h0.827l-3.357,8.695H597.1z"/>
	<path d="M606.217-299.042c-0.216-0.012-0.492,0.012-0.792,0.06c-1.667,0.264-2.53,1.463-2.71,2.758h0.023
		c0.372-0.503,1.032-0.911,1.896-0.911c1.379,0,2.351,1.007,2.351,2.519c0,1.439-0.972,2.758-2.603,2.758
		c-1.655,0-2.746-1.295-2.746-3.322c0-1.535,0.539-2.746,1.319-3.514c0.647-0.636,1.511-1.032,2.494-1.151
		c0.312-0.048,0.576-0.06,0.768-0.06V-299.042z M605.917-294.544c0-1.115-0.636-1.787-1.607-1.787c-0.636,0-1.235,0.384-1.522,0.959
		c-0.061,0.12-0.108,0.264-0.108,0.456c0.012,1.283,0.611,2.243,1.728,2.243C605.306-292.673,605.917-293.429,605.917-294.544z"/>
	<path d="M607.924-291.99v-0.647l0.827-0.804c1.991-1.895,2.902-2.902,2.902-4.078c0-0.792-0.372-1.523-1.535-1.523
		c-0.707,0-1.295,0.36-1.655,0.66l-0.336-0.744c0.528-0.444,1.308-0.792,2.195-0.792c1.679,0,2.387,1.151,2.387,2.267
		c0,1.439-1.044,2.603-2.687,4.186l-0.611,0.576v0.024h3.489v0.875H607.924z"/>
	<path d="M613.528-291.522l3.334-8.695h0.827l-3.357,8.695H613.528z"/>
	<path d="M618.196-291.99v-0.647l0.827-0.804c1.991-1.895,2.902-2.902,2.902-4.078c0-0.792-0.372-1.523-1.535-1.523
		c-0.707,0-1.295,0.36-1.655,0.66l-0.336-0.744c0.528-0.444,1.308-0.792,2.195-0.792c1.679,0,2.387,1.151,2.387,2.267
		c0,1.439-1.044,2.603-2.687,4.186l-0.611,0.576v0.024h3.489v0.875H618.196z"/>
	<path d="M627.614-291.99v-2.135h-3.622v-0.684l3.479-4.978h1.139v4.846h1.092v0.815h-1.092v2.135H627.614z M627.614-294.94v-2.603
		c0-0.408,0.012-0.816,0.036-1.224h-0.036c-0.239,0.456-0.432,0.792-0.647,1.151l-1.907,2.65v0.024H627.614z"/>
</g>
<rect x="477.891" y="-337" fill="#103E18" width="45" height="45"/>
<rect x="249.891" y="102" fill="#E5B31B" width="357" height="357"/>
<rect x="249.891" y="378" fill="#103E18" width="357" height="81"/>
<g>
	<path d="M276.56,363.283v-61.23h15.164c7.29,0,12.51,0.94,15.658,2.817c5.522,3.37,8.286,8.729,8.286,16.075
		c0,3.534-0.719,6.751-2.154,9.651c-1.438,2.9-3.396,5.123-5.882,6.67c-1.712,1.049-3.729,1.768-6.049,2.153
		c-2.319,0.389-5.664,0.581-10.025,0.581h-3.647v23.282H276.56z M287.91,329.146h3.315c4.419,0,7.512-0.468,9.281-1.408
		c2.484-1.381,3.728-3.59,3.728-6.629c0-1.932-0.471-3.575-1.41-4.93c-0.939-1.352-2.237-2.25-3.893-2.693
		c-1.714-0.385-4.116-0.58-7.208-0.58h-3.814V329.146z"/>
	<path d="M370.518,317.381v45.902h-10.11v-5.965c-2.208,2.484-4.503,4.279-6.876,5.383c-2.376,1.105-5.167,1.658-8.369,1.658
		c-6.685,0-12.208-2.248-16.572-6.751c-4.364-4.504-6.545-10.206-6.545-17.11c0-7.016,2.196-12.802,6.586-17.358
		c4.393-4.557,9.985-6.835,16.78-6.835c6.353,0,11.351,2.403,14.996,7.207v-6.131H370.518z M356.265,330.39
		c-2.542-2.651-5.772-3.978-9.693-3.978c-3.923,0-7.14,1.341-9.651,4.02c-2.516,2.679-3.77,6.116-3.77,10.315
		c0,4.032,1.254,7.29,3.77,9.776c2.512,2.486,5.785,3.729,9.816,3.729c4.365,0,7.706-1.383,10.027-4.144
		c2.208-2.597,3.315-5.745,3.315-9.447C360.078,336.468,358.806,333.041,356.265,330.39z"/>
	<path d="M380.955,363.283v-45.902h10.11v4.474c1.434-2.098,2.856-3.546,4.265-4.35c1.408-0.799,3.3-1.2,5.676-1.2h0.829v10.604
		c-6.575,0.167-9.861,3.784-9.861,10.854v25.52H380.955z"/>
	<path d="M456.188,317.381v45.902h-10.11v-5.965c-2.208,2.484-4.5,4.279-6.875,5.383c-2.376,1.105-5.167,1.658-8.368,1.658
		c-6.685,0-12.208-2.248-16.571-6.751c-4.364-4.504-6.546-10.206-6.546-17.11c0-7.016,2.197-12.802,6.586-17.358
		c4.393-4.557,9.985-6.835,16.78-6.835c6.352,0,11.35,2.403,14.995,7.207v-6.131H456.188z M441.938,330.39
		c-2.541-2.651-5.775-3.978-9.695-3.978c-3.924,0-7.14,1.341-9.652,4.02c-2.516,2.679-3.77,6.116-3.77,10.315
		c0,4.032,1.254,7.29,3.77,9.776c2.512,2.486,5.787,3.729,9.817,3.729c4.364,0,7.708-1.383,10.025-4.144
		c2.211-2.597,3.315-5.745,3.315-9.447C445.748,336.468,444.476,333.041,441.938,330.39z"/>
	<path d="M466.624,363.283V127.068h11.023v236.215H466.624z"/>
	<path d="M488.748,363.283V127.068h11.02v236.215H488.748z"/>
	<path d="M556.357,345.221h-35.545c0.664,2.762,2.123,4.958,4.39,6.586c2.266,1.632,5.027,2.446,8.287,2.446
		c2.263,0,4.155-0.345,5.673-1.038c1.521-0.689,2.996-1.863,4.434-3.521h12.014c-0.66,2.045-1.878,4.172-3.646,6.381
		c-4.804,5.522-10.88,8.284-18.226,8.284c-7.019,0-12.915-2.292-17.689-6.876c-4.778-4.584-7.169-10.246-7.169-16.985
		c0-6.738,2.347-12.455,7.044-17.151c4.694-4.693,10.411-7.042,17.151-7.042c6.846,0,12.512,2.334,16.985,7.002
		s6.711,10.562,6.711,17.688C556.771,342.485,556.632,343.896,556.357,345.221z M520.479,335.527h25.438
		c-0.719-2.929-2.167-5.18-4.35-6.753c-2.186-1.573-4.957-2.362-8.327-2.362C526.555,326.412,522.301,329.45,520.479,335.527z"/>
	<path d="M566.134,363.283v-61.23h11.02v61.23H566.134z"/>
</g>
<g>
	<rect x="272.806" y="394.894" fill="none" width="329.331" height="82.164"/>
	<path fill="#FFFFFF" d="M305.42,423.916h8.766c-1.561,3.666-4.021,6.57-7.378,8.711c-3.358,2.143-7.087,3.213-11.189,3.213
		c-5.88,0-10.881-2.041-15-6.125c-4.12-4.084-6.18-9.029-6.18-14.838c0-5.697,2.023-10.57,6.071-14.619
		c4.047-4.047,8.92-6.07,14.619-6.07c5.082,0,9.528,1.543,13.34,4.627c1.343,1.127,2.432,2.242,3.267,3.35
		c0.834,1.107,1.651,2.531,2.45,4.273h-8.331c-1.38-1.777-2.905-3.066-4.574-3.865c-1.67-0.799-3.667-1.197-5.989-1.197
		c-4.175,0-7.514,1.469-10.019,4.41c-2.214,2.578-3.321,5.627-3.321,9.146c0,3.775,1.325,7.006,3.975,9.691
		c2.649,2.688,5.826,4.029,9.528,4.029c1.96,0,3.703-0.361,5.227-1.088C302.208,426.838,303.786,425.623,305.42,423.916z"/>
	<path fill="#FFFFFF" d="M334.223,404.26c4.537,0,8.358,1.543,11.461,4.629s4.655,6.879,4.655,11.379
		c0,4.248-1.579,7.904-4.737,10.973c-3.158,3.066-6.934,4.6-11.325,4.6c-4.429,0-8.204-1.543-11.325-4.627
		c-3.122-3.086-4.683-6.807-4.683-11.162c0-4.32,1.561-8.031,4.683-11.135C326.074,405.812,329.831,404.26,334.223,404.26z
		 M334.277,410.902c-2.36,0-4.402,0.891-6.125,2.668c-1.724,1.779-2.586,3.902-2.586,6.371c0,2.578,0.853,4.764,2.559,6.561
		c1.706,1.797,3.774,2.695,6.207,2.695c2.396,0,4.446-0.889,6.152-2.668c1.706-1.777,2.559-3.938,2.559-6.479
		c0-2.506-0.853-4.656-2.559-6.453C338.778,411.801,336.709,410.902,334.277,410.902z"/>
	<path fill="#FFFFFF" d="M355.785,435.133v-30.164h6.643v2.83c1.052-1.27,2.178-2.178,3.375-2.723
		c1.198-0.543,2.686-0.816,4.465-0.816c3.956,0,6.915,1.561,8.875,4.684c2.359-3.123,5.59-4.684,9.692-4.684
		c2.287,0,4.329,0.418,6.125,1.252c1.797,0.836,3.167,2.016,4.111,3.539c1.307,2.07,1.96,4.955,1.96,8.658v17.424h-7.242V418.58
		c0-2.832-0.455-4.773-1.361-5.826c-1.017-1.234-2.45-1.852-4.301-1.852c-2.396,0-4.084,0.963-5.064,2.887
		c-0.69,1.271-1.035,3.43-1.035,6.479v14.865h-7.241V418.58c0-2.758-0.418-4.682-1.252-5.771c-1.053-1.27-2.596-1.906-4.628-1.906
		c-2.505,0-4.211,1.035-5.118,3.104c-0.509,1.307-0.763,3.395-0.763,6.262v14.865H355.785z"/>
	<path fill="#FFFFFF" d="M408.326,445.205v-40.236h6.643v3.539c2.431-2.832,5.735-4.248,9.91-4.248c4.355,0,7.949,1.48,10.781,4.438
		c2.831,2.959,4.247,6.707,4.247,11.244c0,4.574-1.425,8.367-4.274,11.379c-2.85,3.014-6.452,4.52-10.808,4.52
		c-3.558,0-6.643-1.18-9.256-3.539v12.904H408.326z M423.953,410.902c-2.504,0-4.601,0.871-6.289,2.613
		c-1.688,1.742-2.532,3.902-2.532,6.48c0,2.65,0.844,4.846,2.532,6.588c1.688,1.742,3.82,2.613,6.397,2.613
		c2.396,0,4.419-0.879,6.071-2.641c1.651-1.76,2.478-3.91,2.478-6.451c0-2.615-0.826-4.801-2.478-6.562
		C428.48,411.783,426.421,410.902,423.953,410.902z"/>
	<path fill="#FFFFFF" d="M472.465,404.969v30.164h-6.697v-2.887c-1.342,1.344-2.668,2.279-3.975,2.805s-2.867,0.789-4.682,0.789
		c-4.066,0-7.133-1.488-9.202-4.465c-0.835-1.27-1.425-2.658-1.77-4.164c-0.345-1.506-0.517-3.531-0.517-6.072v-16.17h7.241v14.754
		c0,3.812,0.49,6.336,1.471,7.568c0.943,1.271,2.359,1.906,4.246,1.906c2.578,0,4.412-0.926,5.5-2.777
		c0.762-1.16,1.145-3.574,1.145-7.24v-14.211H472.465z"/>
	<path fill="#FFFFFF" d="M480.741,435.133v-23.576h-3.539v-6.588h3.539v-10.074h7.241v10.074h4.356v6.588h-4.356v23.576H480.741z"/>
	<path fill="#FFFFFF" d="M497.348,401.701v-6.807h7.241v6.807H497.348z M497.348,435.133v-30.164h7.241v30.164H497.348z"/>
	<path fill="#FFFFFF" d="M511.776,435.133v-30.164h6.697v2.885c2.504-2.396,5.336-3.594,8.493-3.594c4.283,0,7.423,1.453,9.42,4.355
		c0.798,1.162,1.361,2.506,1.688,4.029c0.327,1.525,0.49,3.631,0.49,6.316v16.172h-7.241v-14.756c0-3.775-0.473-6.297-1.416-7.568
		c-0.979-1.27-2.432-1.906-4.355-1.906c-2.396,0-4.175,0.926-5.336,2.777c-0.799,1.271-1.198,3.686-1.198,7.242v14.211H511.776z"/>
	<path fill="#FFFFFF" d="M569.219,404.969h6.915v24.447c0,5.518-1.017,9.6-3.049,12.25c-2.904,3.666-7.097,5.5-12.577,5.5
		c-3.703,0-6.907-0.844-9.61-2.533c-2.705-1.688-4.674-4.037-5.908-7.051h8.222c1.053,1.162,2.151,1.988,3.295,2.479
		s2.567,0.734,4.273,0.734c5.372,0,8.186-3.213,8.439-9.637c-1.415,1.67-2.895,2.867-4.438,3.594
		c-1.543,0.725-3.367,1.088-5.472,1.088c-4.32,0-7.868-1.506-10.645-4.52c-2.777-3.012-4.165-6.842-4.165-11.488
		c0-4.465,1.406-8.176,4.22-11.135c2.812-2.957,6.36-4.438,10.645-4.438c4.355,0,7.641,1.508,9.854,4.52V404.969z M560.181,410.902
		c-2.541,0-4.573,0.844-6.098,2.533c-1.525,1.688-2.287,3.93-2.287,6.723c0,2.76,0.771,4.955,2.313,6.59
		c1.543,1.633,3.603,2.449,6.181,2.449c2.576,0,4.655-0.824,6.234-2.477c1.578-1.652,2.368-3.84,2.368-6.562
		c0-2.758-0.809-4.99-2.423-6.697C564.854,411.756,562.758,410.902,560.181,410.902z"/>
</g>
<rect x="249.891" y="767" fill="#D6D6D6" width="357" height="357"/>
<rect x="249.891" y="1043" fill="#303030" width="357" height="81"/>
<g>
	<path d="M276.56,1028.283v-61.23h15.164c7.29,0,12.51,0.94,15.658,2.817c5.522,3.37,8.286,8.729,8.286,16.075
		c0,3.534-0.719,6.751-2.154,9.651c-1.438,2.9-3.396,5.123-5.882,6.67c-1.712,1.049-3.729,1.768-6.049,2.153
		c-2.319,0.389-5.664,0.581-10.025,0.581h-3.647v23.282H276.56z M287.91,994.146h3.315c4.419,0,7.512-0.468,9.281-1.408
		c2.484-1.381,3.728-3.59,3.728-6.629c0-1.932-0.471-3.575-1.41-4.93c-0.939-1.352-2.237-2.25-3.893-2.693
		c-1.714-0.385-4.116-0.58-7.208-0.58h-3.814V994.146z"/>
	<path d="M370.518,982.381v45.902h-10.109v-5.965c-2.207,2.484-4.503,4.279-6.876,5.383c-2.376,1.105-5.167,1.658-8.368,1.658
		c-6.686,0-12.209-2.248-16.572-6.751c-4.364-4.504-6.545-10.206-6.545-17.11c0-7.016,2.196-12.802,6.586-17.358
		c4.393-4.557,9.985-6.835,16.78-6.835c6.354,0,11.352,2.403,14.996,7.207v-6.131H370.518z M356.265,995.39
		c-2.542-2.651-5.772-3.978-9.693-3.978c-3.923,0-7.14,1.341-9.651,4.02c-2.516,2.679-3.77,6.116-3.77,10.315
		c0,4.032,1.254,7.29,3.77,9.776c2.512,2.486,5.785,3.729,9.816,3.729c4.365,0,7.705-1.383,10.027-4.144
		c2.207-2.597,3.314-5.745,3.314-9.447C360.078,1001.468,358.806,998.041,356.265,995.39z"/>
	<path d="M380.955,1028.283v-45.902h10.109v4.474c1.434-2.098,2.857-3.546,4.266-4.35c1.408-0.799,3.3-1.2,5.676-1.2h0.829v10.604
		c-6.575,0.167-9.86,3.784-9.86,10.854v25.52H380.955z"/>
	<path d="M456.188,982.381v45.902h-10.109v-5.965c-2.208,2.484-4.5,4.279-6.876,5.383c-2.376,1.105-5.167,1.658-8.368,1.658
		c-6.686,0-12.207-2.248-16.571-6.751c-4.364-4.504-6.546-10.206-6.546-17.11c0-7.016,2.197-12.802,6.586-17.358
		c4.393-4.557,9.985-6.835,16.78-6.835c6.352,0,11.35,2.403,14.995,7.207v-6.131H456.188z M441.938,995.39
		c-2.541-2.651-5.775-3.978-9.695-3.978c-3.924,0-7.14,1.341-9.652,4.02c-2.516,2.679-3.77,6.116-3.77,10.315
		c0,4.032,1.254,7.29,3.77,9.776c2.513,2.486,5.787,3.729,9.817,3.729c4.364,0,7.708-1.383,10.025-4.144
		c2.212-2.597,3.315-5.745,3.315-9.447C445.748,1001.468,444.476,998.041,441.938,995.39z"/>
	<path d="M466.624,1028.283V792.068h11.023v236.215H466.624z"/>
	<path d="M488.748,1028.283V792.068h11.02v236.215H488.748z"/>
	<path d="M556.357,1010.221h-35.545c0.664,2.762,2.123,4.958,4.39,6.586c2.266,1.632,5.027,2.446,8.287,2.446
		c2.263,0,4.155-0.345,5.673-1.038c1.521-0.689,2.996-1.863,4.434-3.521h12.014c-0.66,2.045-1.878,4.172-3.646,6.381
		c-4.804,5.522-10.88,8.284-18.226,8.284c-7.019,0-12.915-2.292-17.689-6.876c-4.778-4.584-7.169-10.246-7.169-16.985
		c0-6.738,2.347-12.455,7.044-17.151c4.694-4.693,10.411-7.042,17.151-7.042c6.846,0,12.512,2.334,16.985,7.002
		s6.711,10.562,6.711,17.688C556.771,1007.485,556.632,1008.896,556.357,1010.221z M520.479,1000.527h25.438
		c-0.719-2.929-2.167-5.18-4.35-6.753c-2.186-1.573-4.957-2.362-8.327-2.362C526.555,991.412,522.301,994.45,520.479,1000.527z"/>
	<path d="M566.134,1028.283v-61.23h11.02v61.23H566.134z"/>
</g>
<g>
	<rect x="272.806" y="1059.894" fill="none" width="329.331" height="82.164"/>
	<path fill="#FFFFFF" d="M305.42,1088.916h8.766c-1.561,3.666-4.021,6.57-7.378,8.711c-3.358,2.143-7.087,3.213-11.189,3.213
		c-5.88,0-10.881-2.041-15-6.125c-4.12-4.084-6.18-9.029-6.18-14.838c0-5.697,2.023-10.57,6.071-14.619
		c4.047-4.047,8.92-6.07,14.619-6.07c5.082,0,9.528,1.543,13.34,4.627c1.343,1.127,2.432,2.242,3.267,3.35
		c0.834,1.107,1.651,2.531,2.45,4.273h-8.331c-1.38-1.777-2.905-3.066-4.574-3.865c-1.67-0.799-3.667-1.197-5.989-1.197
		c-4.175,0-7.514,1.469-10.019,4.41c-2.214,2.578-3.321,5.627-3.321,9.146c0,3.775,1.325,7.006,3.975,9.691
		c2.649,2.688,5.826,4.029,9.528,4.029c1.96,0,3.703-0.361,5.227-1.088C302.208,1091.838,303.786,1090.623,305.42,1088.916z"/>
	<path fill="#FFFFFF" d="M334.223,1069.26c4.537,0,8.358,1.543,11.461,4.629s4.655,6.879,4.655,11.379
		c0,4.248-1.579,7.904-4.737,10.973c-3.158,3.066-6.934,4.6-11.325,4.6c-4.429,0-8.204-1.543-11.325-4.627
		c-3.122-3.086-4.683-6.807-4.683-11.162c0-4.32,1.561-8.031,4.683-11.135C326.074,1070.812,329.831,1069.26,334.223,1069.26z
		 M334.277,1075.902c-2.36,0-4.402,0.891-6.125,2.668c-1.724,1.779-2.586,3.902-2.586,6.371c0,2.578,0.853,4.764,2.559,6.561
		c1.706,1.797,3.774,2.695,6.207,2.695c2.396,0,4.446-0.889,6.152-2.668c1.706-1.777,2.559-3.938,2.559-6.479
		c0-2.506-0.853-4.656-2.559-6.453C338.778,1076.801,336.709,1075.902,334.277,1075.902z"/>
	<path fill="#FFFFFF" d="M355.785,1100.133v-30.164h6.643v2.83c1.052-1.27,2.178-2.178,3.375-2.723
		c1.198-0.543,2.686-0.816,4.465-0.816c3.956,0,6.915,1.561,8.875,4.684c2.359-3.123,5.59-4.684,9.692-4.684
		c2.287,0,4.329,0.418,6.125,1.252c1.797,0.836,3.167,2.016,4.111,3.539c1.307,2.07,1.96,4.955,1.96,8.658v17.424h-7.242v-16.553
		c0-2.832-0.455-4.773-1.361-5.826c-1.017-1.234-2.45-1.852-4.301-1.852c-2.396,0-4.084,0.963-5.064,2.887
		c-0.69,1.271-1.035,3.43-1.035,6.479v14.865h-7.241v-16.553c0-2.758-0.418-4.682-1.252-5.771c-1.053-1.27-2.596-1.906-4.628-1.906
		c-2.505,0-4.211,1.035-5.118,3.104c-0.509,1.307-0.763,3.395-0.763,6.262v14.865H355.785z"/>
	<path fill="#FFFFFF" d="M408.326,1110.205v-40.236h6.643v3.539c2.431-2.832,5.735-4.248,9.91-4.248
		c4.355,0,7.949,1.48,10.781,4.438c2.831,2.959,4.247,6.707,4.247,11.244c0,4.574-1.425,8.367-4.274,11.379
		c-2.85,3.014-6.452,4.52-10.808,4.52c-3.558,0-6.643-1.18-9.256-3.539v12.904H408.326z M423.953,1075.902
		c-2.504,0-4.601,0.871-6.289,2.613c-1.688,1.742-2.532,3.902-2.532,6.48c0,2.65,0.844,4.846,2.532,6.588
		c1.688,1.742,3.82,2.613,6.397,2.613c2.396,0,4.419-0.879,6.071-2.641c1.651-1.76,2.478-3.91,2.478-6.451
		c0-2.615-0.826-4.801-2.478-6.562C428.48,1076.783,426.421,1075.902,423.953,1075.902z"/>
	<path fill="#FFFFFF" d="M472.465,1069.969v30.164h-6.697v-2.887c-1.342,1.344-2.668,2.279-3.975,2.805s-2.867,0.789-4.682,0.789
		c-4.066,0-7.133-1.488-9.202-4.465c-0.835-1.27-1.425-2.658-1.77-4.164c-0.345-1.506-0.517-3.531-0.517-6.072v-16.17h7.241v14.754
		c0,3.812,0.49,6.336,1.471,7.568c0.943,1.271,2.359,1.906,4.246,1.906c2.578,0,4.412-0.926,5.5-2.777
		c0.762-1.16,1.145-3.574,1.145-7.24v-14.211H472.465z"/>
	<path fill="#FFFFFF" d="M480.741,1100.133v-23.576h-3.539v-6.588h3.539v-10.074h7.241v10.074h4.356v6.588h-4.356v23.576H480.741z"
		/>
	<path fill="#FFFFFF" d="M497.348,1066.701v-6.807h7.241v6.807H497.348z M497.348,1100.133v-30.164h7.241v30.164H497.348z"/>
	<path fill="#FFFFFF" d="M511.776,1100.133v-30.164h6.697v2.885c2.504-2.396,5.336-3.594,8.493-3.594
		c4.283,0,7.423,1.453,9.42,4.355c0.798,1.162,1.361,2.506,1.688,4.029c0.327,1.525,0.49,3.631,0.49,6.316v16.172h-7.241v-14.756
		c0-3.775-0.473-6.297-1.416-7.568c-0.979-1.27-2.432-1.906-4.355-1.906c-2.396,0-4.175,0.926-5.336,2.777
		c-0.799,1.271-1.198,3.686-1.198,7.242v14.211H511.776z"/>
	<path fill="#FFFFFF" d="M569.219,1069.969h6.915v24.447c0,5.518-1.017,9.6-3.049,12.25c-2.904,3.666-7.097,5.5-12.577,5.5
		c-3.703,0-6.907-0.844-9.61-2.533c-2.705-1.688-4.674-4.037-5.908-7.051h8.222c1.053,1.162,2.151,1.988,3.295,2.479
		s2.567,0.734,4.273,0.734c5.372,0,8.186-3.213,8.439-9.637c-1.415,1.67-2.895,2.867-4.438,3.594
		c-1.543,0.725-3.367,1.088-5.472,1.088c-4.32,0-7.868-1.506-10.645-4.52c-2.777-3.012-4.165-6.842-4.165-11.488
		c0-4.465,1.406-8.176,4.22-11.135c2.812-2.957,6.36-4.438,10.645-4.438c4.355,0,7.641,1.508,9.854,4.52V1069.969z
		 M560.181,1075.902c-2.541,0-4.573,0.844-6.098,2.533c-1.525,1.688-2.287,3.93-2.287,6.723c0,2.76,0.771,4.955,2.313,6.59
		c1.543,1.633,3.603,2.449,6.181,2.449c2.576,0,4.655-0.824,6.234-2.477c1.578-1.652,2.368-3.84,2.368-6.562
		c0-2.758-0.809-4.99-2.423-6.697C564.854,1076.756,562.758,1075.902,560.181,1075.902z"/>
</g>
</svg>

