<svg id="Layer_1" data-name="Layer 1" xmlns="http://www.w3.org/2000/svg" viewBox="0 0 927.6 287.21"><defs><style>.cls-1{fill:#0071af;}</style></defs><title>ec-schrift</title><path d="M446.61,139.6l5.35,2.81a29.12,29.12,0,0,1-6.08,8.34,24.12,24.12,0,0,1-7.76,4.83,27.15,27.15,0,0,1-9.76,1.65q-12.07,0-18.88-7.91a26.67,26.67,0,0,1-6.81-17.88,26.37,26.37,0,0,1,5.76-16.73q7.31-9.35,19.56-9.35,12.62,0,20.15,9.57,5.36,6.76,5.45,16.86H409.2a20.1,20.1,0,0,0,5.49,14.09,17.53,17.53,0,0,0,13.12,5.5,21.07,21.07,0,0,0,7.33-1.31,19.35,19.35,0,0,0,6.06-3.48A29.65,29.65,0,0,0,446.61,139.6Zm0-13.29a21.08,21.08,0,0,0-3.7-8.12,17.52,17.52,0,0,0-6.42-4.89,19.68,19.68,0,0,0-8.4-1.86,18.08,18.08,0,0,0-12.49,4.67q-3.81,3.4-5.76,10.2Z"/><path d="M469.77,87.59h6.35V156h-6.35Z"/><path d="M536.14,139.6l5.35,2.81a29.12,29.12,0,0,1-6.08,8.34,24.12,24.12,0,0,1-7.76,4.83,27.15,27.15,0,0,1-9.76,1.65q-12.07,0-18.88-7.91a26.67,26.67,0,0,1-6.81-17.88A26.37,26.37,0,0,1,498,114.7q7.31-9.35,19.56-9.35,12.62,0,20.15,9.57,5.36,6.76,5.45,16.86H498.73a20.1,20.1,0,0,0,5.49,14.09,17.53,17.53,0,0,0,13.12,5.5,21.07,21.07,0,0,0,7.33-1.31,19.35,19.35,0,0,0,6.06-3.48A29.65,29.65,0,0,0,536.14,139.6Zm0-13.29a21.08,21.08,0,0,0-3.7-8.12A17.52,17.52,0,0,0,526,113.3a19.68,19.68,0,0,0-8.4-1.86,18.08,18.08,0,0,0-12.49,4.67q-3.81,3.4-5.76,10.2Z"/><path d="M608.13,116.88l-5,3.13q-6.52-8.66-17.8-8.66a20.57,20.57,0,0,0-15,5.8,18.91,18.91,0,0,0-6,14.08,20,20,0,0,0,2.74,10.15,19.17,19.17,0,0,0,7.52,7.38,22.73,22.73,0,0,0,28.46-6l5,3.31a23.74,23.74,0,0,1-9.5,8.26A30.29,30.29,0,0,1,585,157.23q-11.7,0-19.4-7.43a24.2,24.2,0,0,1-7.71-18.1,25.86,25.86,0,0,1,3.6-13.31,25.41,25.41,0,0,1,9.91-9.59,28.93,28.93,0,0,1,14.1-3.45,30.18,30.18,0,0,1,9.46,1.5,26.24,26.24,0,0,1,7.73,3.9A21.28,21.28,0,0,1,608.13,116.88Z"/><path d="M631.15,88.31h6.35v18.31h10.07v5.49H637.49V156h-6.35V112.12h-8.66v-5.49h8.66Z"/><path d="M660,106.63h6.49v7.21a22.65,22.65,0,0,1,6.12-6.37,12.06,12.06,0,0,1,6.71-2.11,11.6,11.6,0,0,1,5.62,1.68l-3.31,5.35a8.78,8.78,0,0,0-3.36-.86,9.18,9.18,0,0,0-6.12,2.61q-2.95,2.61-4.49,8.09-1.18,4.22-1.18,17V156H660Z"/><path d="M718.95,105.36a24.43,24.43,0,0,1,18.89,8.25,26.49,26.49,0,0,1-.39,35.89q-7.2,7.73-18.51,7.73t-18.55-7.73a26.43,26.43,0,0,1-.39-35.84A24.42,24.42,0,0,1,718.95,105.36Zm0,6.21a18.31,18.31,0,0,0-13.61,5.85,19.56,19.56,0,0,0-5.69,14.15,20.06,20.06,0,0,0,2.59,10,18.41,18.41,0,0,0,7,7.14,19.93,19.93,0,0,0,19.38,0,18.43,18.43,0,0,0,7-7.14,20.07,20.07,0,0,0,2.6-10,19.52,19.52,0,0,0-5.71-14.15A18.34,18.34,0,0,0,718.93,111.57Z"/><path d="M761.69,106.63H768v8.84a26.51,26.51,0,0,1,8.43-7.59,20.73,20.73,0,0,1,10.07-2.52,17.52,17.52,0,0,1,9.82,2.81,16.77,16.77,0,0,1,6.32,7.57q2,4.76,2,14.83V156h-6.35V132.43q0-8.53-.7-11.38a12.49,12.49,0,0,0-4.23-7.37,12.76,12.76,0,0,0-8.16-2.47A15.65,15.65,0,0,0,775,115a17.83,17.83,0,0,0-6,9.43q-.91,3.67-.91,13.42V156h-6.35Z"/><path d="M825.82,89.44a3.55,3.55,0,0,1,2.61,1.09,3.59,3.59,0,0,1,1.08,2.63,3.68,3.68,0,0,1-7.36,0,3.59,3.59,0,0,1,1.08-2.63A3.52,3.52,0,0,1,825.82,89.44Zm-3.16,17.18H829V156h-6.35Z"/><path d="M895.38,116.88l-5,3.13q-6.52-8.66-17.8-8.66a20.57,20.57,0,0,0-15,5.8,18.91,18.91,0,0,0-6,14.08,20,20,0,0,0,2.74,10.15,19.17,19.17,0,0,0,7.52,7.38,22.73,22.73,0,0,0,28.46-6l5,3.31a23.74,23.74,0,0,1-9.5,8.26,30.29,30.29,0,0,1-13.58,2.94q-11.7,0-19.4-7.43a24.2,24.2,0,0,1-7.71-18.1,25.86,25.86,0,0,1,3.6-13.31,25.41,25.41,0,0,1,9.91-9.59,28.93,28.93,0,0,1,14.1-3.45,30.18,30.18,0,0,1,9.46,1.5,26.24,26.24,0,0,1,7.73,3.9A21.28,21.28,0,0,1,895.38,116.88Z"/><path class="cls-1" d="M453,187.21l-5,3.13q-6.52-8.66-17.8-8.66a20.57,20.57,0,0,0-15,5.8,18.91,18.91,0,0,0-6,14.08,20,20,0,0,0,2.74,10.15,19.17,19.17,0,0,0,7.52,7.38,22.73,22.73,0,0,0,28.46-6l5,3.31a23.74,23.74,0,0,1-9.5,8.26,30.29,30.29,0,0,1-13.58,2.94q-11.7,0-19.4-7.43a24.2,24.2,0,0,1-7.71-18.1,25.86,25.86,0,0,1,3.6-13.31,25.41,25.41,0,0,1,9.91-9.59,28.93,28.93,0,0,1,14.1-3.45,30.18,30.18,0,0,1,9.46,1.5,26.24,26.24,0,0,1,7.73,3.9A21.28,21.28,0,0,1,453,187.21Z"/><path class="cls-1" d="M488.51,175.69a24.43,24.43,0,0,1,18.89,8.25,26.49,26.49,0,0,1-.39,35.89q-7.2,7.73-18.51,7.73T470,219.83a26.43,26.43,0,0,1-.39-35.84A24.42,24.42,0,0,1,488.51,175.69Zm0,6.21a18.31,18.31,0,0,0-13.61,5.85,19.56,19.56,0,0,0-5.69,14.15,20.06,20.06,0,0,0,2.59,10,18.41,18.41,0,0,0,7,7.14,19.93,19.93,0,0,0,19.38,0,18.43,18.43,0,0,0,7-7.14,20.07,20.07,0,0,0,2.6-10,19.52,19.52,0,0,0-5.71-14.15A18.34,18.34,0,0,0,488.48,181.9Z"/><path class="cls-1" d="M525.91,177h6.35v8.53a24.64,24.64,0,0,1,6.81-6.89,19.33,19.33,0,0,1,10.12-2.9A16.88,16.88,0,0,1,556,177.1a14.62,14.62,0,0,1,5.26,3.74,20,20,0,0,1,3.54,6.69,23.44,23.44,0,0,1,7.91-8.82,18.74,18.74,0,0,1,10.22-3,16,16,0,0,1,9,2.59,15.4,15.4,0,0,1,5.81,7.21q1.9,4.63,1.9,13.88v26.93H593.2V199.36q0-7.93-1.13-10.91a9.8,9.8,0,0,0-3.87-4.78,11.49,11.49,0,0,0-6.53-1.82,14.19,14.19,0,0,0-8.43,2.72,15.66,15.66,0,0,0-5.58,7.25q-1.76,4.54-1.76,15.15v19.32h-6.35V201q0-8.93-1.11-12.13a10.18,10.18,0,0,0-3.88-5.13,11.23,11.23,0,0,0-6.57-1.93,14.15,14.15,0,0,0-8.23,2.65,15.68,15.68,0,0,0-5.67,7.14q-1.84,4.48-1.84,13.74v20.9h-6.35Z"/><path class="cls-1" d="M613,177h6.35v8.53a24.64,24.64,0,0,1,6.81-6.89,19.33,19.33,0,0,1,10.12-2.9,16.88,16.88,0,0,1,6.81,1.41,14.62,14.62,0,0,1,5.26,3.74,20,20,0,0,1,3.54,6.69,23.44,23.44,0,0,1,7.91-8.82,18.74,18.74,0,0,1,10.22-3,16,16,0,0,1,9,2.59,15.4,15.4,0,0,1,5.81,7.21q1.9,4.63,1.9,13.88v26.93H680.3V199.36q0-7.93-1.13-10.91a9.8,9.8,0,0,0-3.87-4.78,11.49,11.49,0,0,0-6.53-1.82,14.19,14.19,0,0,0-8.43,2.72,15.66,15.66,0,0,0-5.58,7.25Q653,196.37,653,207v19.32h-6.35V201q0-8.93-1.11-12.13a10.18,10.18,0,0,0-3.88-5.13,11.23,11.23,0,0,0-6.57-1.93,14.15,14.15,0,0,0-8.23,2.65,15.68,15.68,0,0,0-5.67,7.14q-1.84,4.48-1.84,13.74v20.9H613Z"/><path class="cls-1" d="M741.69,209.93l5.35,2.81a29.12,29.12,0,0,1-6.08,8.34,24.12,24.12,0,0,1-7.76,4.83,27.15,27.15,0,0,1-9.76,1.65q-12.07,0-18.88-7.91a26.67,26.67,0,0,1-6.81-17.88A26.37,26.37,0,0,1,703.52,185q7.31-9.35,19.56-9.35,12.62,0,20.15,9.57,5.36,6.76,5.45,16.86H704.28a20.1,20.1,0,0,0,5.49,14.09,17.53,17.53,0,0,0,13.12,5.5,21.07,21.07,0,0,0,7.33-1.31,19.35,19.35,0,0,0,6.06-3.48A29.65,29.65,0,0,0,741.69,209.93Zm0-13.29a21.08,21.08,0,0,0-3.7-8.12,17.52,17.52,0,0,0-6.42-4.89,19.68,19.68,0,0,0-8.4-1.86,18.08,18.08,0,0,0-12.49,4.67q-3.81,3.4-5.76,10.2Z"/><path class="cls-1" d="M758.1,177h6.49v7.21a22.65,22.65,0,0,1,6.12-6.37,12.06,12.06,0,0,1,6.71-2.11,11.6,11.6,0,0,1,5.62,1.68l-3.31,5.35a8.78,8.78,0,0,0-3.36-.86,9.18,9.18,0,0,0-6.12,2.61q-2.95,2.61-4.49,8.09-1.18,4.22-1.18,17v16.69H758.1Z"/><path class="cls-1" d="M836.32,187.21l-5,3.13q-6.52-8.66-17.8-8.66a20.57,20.57,0,0,0-15,5.8,18.91,18.91,0,0,0-6,14.08,20,20,0,0,0,2.74,10.15,19.17,19.17,0,0,0,7.52,7.38,22.73,22.73,0,0,0,28.46-6l5,3.31a23.74,23.74,0,0,1-9.5,8.26,30.29,30.29,0,0,1-13.58,2.94q-11.7,0-19.4-7.43a24.2,24.2,0,0,1-7.71-18.1,25.86,25.86,0,0,1,3.6-13.31,25.41,25.41,0,0,1,9.91-9.59,28.93,28.93,0,0,1,14.1-3.45,30.18,30.18,0,0,1,9.46,1.5,26.24,26.24,0,0,1,7.73,3.9A21.28,21.28,0,0,1,836.32,187.21Z"/><path class="cls-1" d="M890,209.93l5.35,2.81a29.12,29.12,0,0,1-6.08,8.34,24.12,24.12,0,0,1-7.76,4.83,27.15,27.15,0,0,1-9.76,1.65q-12.07,0-18.88-7.91a26.67,26.67,0,0,1-6.81-17.88A26.37,26.37,0,0,1,851.87,185q7.31-9.35,19.56-9.35,12.62,0,20.15,9.57,5.36,6.76,5.45,16.86H852.64a20.1,20.1,0,0,0,5.49,14.09,17.53,17.53,0,0,0,13.12,5.5,21.07,21.07,0,0,0,7.33-1.31,19.35,19.35,0,0,0,6.06-3.48A29.65,29.65,0,0,0,890,209.93Zm0-13.29a21.08,21.08,0,0,0-3.7-8.12,17.52,17.52,0,0,0-6.42-4.89,19.68,19.68,0,0,0-8.4-1.86A18.08,18.08,0,0,0,859,186.44q-3.81,3.4-5.76,10.2Z"/><path d="M184.36,183.94c-1,1.73-2.15,3.4-3.28,5a78.71,78.71,0,0,1-126.87,2.6L196.38,99.29,195,96.77a59.88,59.88,0,0,0-3.53-5.51A91.27,91.27,0,0,0,42,91.19c-1.3,1.76-2.47,3.58-3.58,5.41a91.4,91.4,0,0,0,0,94c1.11,1.82,2.27,3.64,3.53,5.33a91.27,91.27,0,0,0,149.48,0,60.8,60.8,0,0,0,3.53-5.52l1.4-2.52L186,181.12ZM49.06,103.2c1-1.72,2.1-3.33,3.22-4.93a78.71,78.71,0,0,1,126.88-2.61L47.44,181.18a78.5,78.5,0,0,1,1.62-78Z"/><path class="cls-1" d="M366.6,183.94c-1,1.73-2.14,3.39-3.27,5a78.72,78.72,0,0,1-128.8,0c-1.13-1.61-2.2-3.22-3.24-5a78.47,78.47,0,0,1,0-80.77c1-1.72,2.09-3.33,3.21-4.93a78.72,78.72,0,0,1,128.81,0c1.14,1.61,2.27,3.27,3.27,5l1.65,2.82,10.38-6.79-1.4-2.52a61.56,61.56,0,0,0-3.53-5.51,91.28,91.28,0,0,0-149.44-.06c-1.29,1.76-2.47,3.58-3.58,5.4a91.43,91.43,0,0,0,0,94c1.1,1.82,2.28,3.63,3.53,5.33a91.28,91.28,0,0,0,149.48,0,61.56,61.56,0,0,0,3.53-5.51l1.4-2.52-10.38-6.79Z"/></svg>