<?xml version="1.0" encoding="UTF-8" standalone="no"?>
<!-- Created with Inkscape (http://www.inkscape.org/) -->

<svg
   xmlns:dc="http://purl.org/dc/elements/1.1/"
   xmlns:cc="http://creativecommons.org/ns#"
   xmlns:rdf="http://www.w3.org/1999/02/22-rdf-syntax-ns#"
   xmlns:svg="http://www.w3.org/2000/svg"
   xmlns="http://www.w3.org/2000/svg"
   xmlns:sodipodi="http://sodipodi.sourceforge.net/DTD/sodipodi-0.dtd"
   xmlns:inkscape="http://www.inkscape.org/namespaces/inkscape"
   width="55.963051mm"
   height="38.074398mm"
   viewBox="0 0 198.29428 134.90928"
   id="svg4237"
   version="1.1"
   inkscape:version="0.91 r13725"
   sodipodi:docname="dsg-logo--full-high_paths.svg">
  <defs
     id="defs4239" />
  <sodipodi:namedview
     id="base"
     pagecolor="#ffffff"
     bordercolor="#666666"
     borderopacity="1.0"
     inkscape:pageopacity="0.0"
     inkscape:pageshadow="2"
     inkscape:zoom="3.959798"
     inkscape:cx="141.77794"
     inkscape:cy="57.245832"
     inkscape:document-units="px"
     inkscape:current-layer="layer1"
     showgrid="false"
     fit-margin-top="2"
     fit-margin-left="2"
     fit-margin-right="2"
     fit-margin-bottom="2"
     inkscape:window-width="1920"
     inkscape:window-height="1147"
     inkscape:window-x="0"
     inkscape:window-y="0"
     inkscape:window-maximized="1"
     showguides="true"
     inkscape:guide-bbox="true" />
  <metadata
     id="metadata4242">
    <rdf:RDF>
      <cc:Work
         rdf:about="">
        <dc:format>image/svg+xml</dc:format>
        <dc:type
           rdf:resource="http://purl.org/dc/dcmitype/StillImage" />
        <dc:title></dc:title>
      </cc:Work>
    </rdf:RDF>
  </metadata>
  <g
     inkscape:label="Layer 1"
     inkscape:groupmode="layer"
     id="layer1"
     transform="translate(-1452.2199,-347.90756)">
    <g
       style="font-style:normal;font-weight:normal;font-size:63.06657791px;line-height:89.99999762%;font-family:sans-serif;letter-spacing:0px;word-spacing:0px;fill:#4d4d4d;fill-opacity:1;stroke:none;stroke-width:1px;stroke-linecap:butt;stroke-linejoin:miter;stroke-opacity:1"
       id="text4374">
      <path
         d="m 1474.4015,444.55104 q 0,2.19885 -0.6917,3.82946 -0.6918,1.63061 -1.9518,2.71768 -1.2353,1.08707 -2.9648,1.63061 -1.7294,0.54353 -3.8047,0.54353 -1.0377,0 -2.1741,-0.12353 -1.1365,-0.0988 -2.0012,-0.32118 l 0,-16.50372 q 0.8647,-0.24706 2.0012,-0.34589 1.1364,-0.12353 2.1741,-0.12353 2.0753,0 3.8047,0.54354 1.7295,0.54353 2.9648,1.63061 1.26,1.08707 1.9518,2.71767 0.6917,1.63061 0.6917,3.80475 z m -11.9083,7.09067 q 0.1482,0.0247 0.7412,0.0988 0.6176,0.0741 1.9517,0.0741 1.853,0 3.2366,-0.49413 1.3835,-0.51883 2.3223,-1.45766 0.9389,-0.93883 1.4083,-2.27297 0.4694,-1.35884 0.4694,-3.03886 0,-1.68002 -0.4694,-3.01415 -0.4694,-1.33413 -1.4083,-2.27297 -0.9388,-0.93883 -2.3223,-1.43295 -1.3836,-0.51883 -3.2366,-0.51883 -1.3341,0 -1.9517,0.0741 -0.593,0.0741 -0.7412,0.0988 l 0,14.15663 z"
         style="font-style:normal;font-variant:normal;font-weight:300;font-stretch:normal;font-size:24.70616913px;line-height:89.99999762%;font-family:Ubuntu;-inkscape-font-specification:'Ubuntu Light';letter-spacing:-0.23999999px;fill:#4d4d4d;fill-opacity:1"
         id="path8091" />
      <path
         d="m 1477.8964,436.00271 1.68,0 0,17.12137 -1.68,0 0,-17.12137 z"
         style="font-style:normal;font-variant:normal;font-weight:300;font-stretch:normal;font-size:24.70616913px;line-height:89.99999762%;font-family:Ubuntu;-inkscape-font-specification:'Ubuntu Light';letter-spacing:-0.23999999px;fill:#4d4d4d;fill-opacity:1"
         id="path8093" />
      <path
         d="m 1487.4659,452.03701 q 2.0012,0 3.113,-0.71648 1.1118,-0.74118 1.1118,-2.37179 0,-0.93883 -0.3706,-1.55649 -0.3459,-0.64236 -0.9388,-1.06236 -0.593,-0.44471 -1.3589,-0.74119 -0.7659,-0.32118 -1.6059,-0.66706 -1.0623,-0.42001 -1.9024,-0.86472 -0.84,-0.44471 -1.4329,-0.98825 -0.593,-0.56824 -0.9141,-1.28472 -0.2965,-0.71648 -0.2965,-1.68002 0,-2.19885 1.4577,-3.33533 1.4576,-1.13648 4.0518,-1.13648 0.6917,0 1.3588,0.0988 0.6671,0.0988 1.2353,0.27177 0.593,0.14824 1.0624,0.34589 0.4941,0.19764 0.8153,0.42 l -0.593,1.40825 q -0.7164,-0.49412 -1.7541,-0.7906 -1.013,-0.29647 -2.1989,-0.29647 -0.8153,0 -1.507,0.17294 -0.6671,0.14824 -1.1612,0.51883 -0.4941,0.34589 -0.7906,0.88943 -0.2718,0.54353 -0.2718,1.30942 0,0.7906 0.2965,1.33414 0.2965,0.54353 0.8153,0.93883 0.5435,0.3953 1.26,0.71648 0.7165,0.32118 1.5565,0.66707 1.0129,0.42 1.9024,0.84001 0.9141,0.42 1.5812,0.98824 0.667,0.56824 1.0623,1.38355 0.3953,0.8153 0.3953,2.0012 0,2.32238 -1.6306,3.48357 -1.6059,1.16119 -4.373,1.16119 -0.9882,0 -1.8035,-0.12353 -0.8153,-0.12353 -1.4577,-0.29648 -0.6423,-0.19765 -1.0871,-0.3953 -0.4447,-0.19765 -0.6917,-0.34588 l 0.5435,-1.45767 q 0.2471,0.14824 0.6671,0.34589 0.42,0.19765 0.9882,0.3953 0.5683,0.17294 1.2847,0.29647 0.7165,0.12353 1.5812,0.12353 z"
         style="font-style:normal;font-variant:normal;font-weight:300;font-stretch:normal;font-size:24.70616913px;line-height:89.99999762%;font-family:Ubuntu;-inkscape-font-specification:'Ubuntu Light';letter-spacing:-0.23999999px;fill:#4d4d4d;fill-opacity:1"
         id="path8095" />
      <path
         d="m 1507.2028,436.00271 0,1.45766 -5.4848,0 0,15.66371 -1.68,0 0,-15.66371 -5.4848,0 0,-1.45766 12.6496,0 z"
         style="font-style:normal;font-variant:normal;font-weight:300;font-stretch:normal;font-size:24.70616913px;line-height:89.99999762%;font-family:Ubuntu;-inkscape-font-specification:'Ubuntu Light';letter-spacing:-0.23999999px;fill:#4d4d4d;fill-opacity:1"
         id="path8097" />
      <path
         d="m 1521.0658,441.14159 q 0,1.92708 -1.013,3.03886 -1.0129,1.11178 -2.6682,1.6059 0.3953,0.49413 1.0129,1.33414 0.6424,0.84001 1.3094,1.85296 0.6671,0.98824 1.3095,2.07532 0.6423,1.08707 1.087,2.07531 l -1.8035,0 q -0.5188,-0.98824 -1.1365,-1.97649 -0.5929,-0.98825 -1.2353,-1.90237 -0.6177,-0.93884 -1.2106,-1.72944 -0.593,-0.79059 -1.0377,-1.38354 -0.7906,0.0741 -1.5812,0.0741 l -2.7671,0 0,6.91772 -1.68,0 0,-16.80019 q 0.8894,-0.24706 2.0753,-0.34589 1.2106,-0.12353 2.2236,-0.12353 3.533,0 5.3118,1.33414 1.8036,1.33413 1.8036,3.95298 z m -6.9178,-3.82945 q -0.9388,0 -1.6553,0.0741 -0.6917,0.0494 -1.1612,0.0988 l 0,7.28832 2.3224,0 q 1.1612,0 2.1989,-0.0988 1.0376,-0.12353 1.8035,-0.49412 0.7659,-0.3953 1.2106,-1.11178 0.4447,-0.71648 0.4447,-1.95178 0,-1.13649 -0.4447,-1.87767 -0.4447,-0.74119 -1.1612,-1.16119 -0.7164,-0.44471 -1.6553,-0.59295 -0.9141,-0.17294 -1.9024,-0.17294 z"
         style="font-style:normal;font-variant:normal;font-weight:300;font-stretch:normal;font-size:24.70616913px;line-height:89.99999762%;font-family:Ubuntu;-inkscape-font-specification:'Ubuntu Light';letter-spacing:-0.23999999px;fill:#4d4d4d;fill-opacity:1"
         id="path8099" />
      <path
         d="m 1524.6599,436.00271 1.68,0 0,17.12137 -1.68,0 0,-17.12137 z"
         style="font-style:normal;font-variant:normal;font-weight:300;font-stretch:normal;font-size:24.70616913px;line-height:89.99999762%;font-family:Ubuntu;-inkscape-font-specification:'Ubuntu Light';letter-spacing:-0.23999999px;fill:#4d4d4d;fill-opacity:1"
         id="path8101" />
      <path
         d="m 1534.6494,453.27232 q -0.42,0 -0.9883,-0.0494 -0.5435,-0.0247 -1.1365,-0.0988 -0.5682,-0.0494 -1.087,-0.12353 -0.5189,-0.0988 -0.8894,-0.19765 l 0,-16.47901 q 0.4447,-0.12353 0.9882,-0.19765 0.5435,-0.0988 1.1118,-0.14824 0.5929,-0.0741 1.1365,-0.0988 0.5682,-0.0247 1.0376,-0.0247 1.3836,0 2.6189,0.22236 1.26,0.22235 2.1988,0.74118 0.9389,0.51883 1.4824,1.38355 0.5682,0.84001 0.5682,2.10002 0,1.38355 -0.7164,2.37179 -0.6918,0.96355 -1.8777,1.33414 0.7412,0.17294 1.3588,0.49412 0.6177,0.32118 1.0871,0.84001 0.4694,0.49412 0.7165,1.23531 0.2717,0.71648 0.2717,1.72943 0,2.42121 -1.927,3.70593 -1.9271,1.26001 -5.9542,1.26001 z m -2.4212,-8.35068 0,6.74478 q 0.3706,0.0494 1.1118,0.12353 0.7411,0.0494 1.507,0.0494 1.1365,0 2.1989,-0.14823 1.087,-0.14824 1.9024,-0.54354 0.8153,-0.3953 1.3094,-1.08707 0.4941,-0.69177 0.4941,-1.77884 0,-0.98825 -0.3459,-1.63061 -0.3459,-0.66707 -0.9882,-1.03766 -0.6424,-0.3953 -1.5812,-0.54354 -0.9142,-0.14823 -2.0506,-0.14823 l -3.5577,0 z m 0,-1.43296 3.2612,0 q 0.9141,0 1.7294,-0.12353 0.8153,-0.14824 1.4083,-0.49413 0.6176,-0.37059 0.9635,-0.96354 0.3459,-0.61765 0.3459,-1.55648 0,-0.84001 -0.3706,-1.40826 -0.3706,-0.59294 -1.0624,-0.96354 -0.667,-0.37059 -1.6059,-0.51883 -0.9388,-0.17294 -2.0753,-0.17294 -0.9141,0 -1.5565,0.0494 -0.6176,0.0494 -1.0376,0.12353 l 0,6.02831 z"
         style="font-style:normal;font-variant:normal;font-weight:300;font-stretch:normal;font-size:24.70616913px;line-height:89.99999762%;font-family:Ubuntu;-inkscape-font-specification:'Ubuntu Light';letter-spacing:-0.23999999px;fill:#4d4d4d;fill-opacity:1"
         id="path8103" />
      <path
         d="m 1552.0708,453.49468 q -1.7047,0 -2.9153,-0.51883 -1.1859,-0.51883 -1.9271,-1.43296 -0.7412,-0.91413 -1.0871,-2.12473 -0.3211,-1.23531 -0.3211,-2.64356 l 0,-10.77189 1.68,0 0,10.54953 q 0,1.40826 0.3212,2.44591 0.3458,1.01296 0.9388,1.68002 0.5929,0.66707 1.4329,0.98825 0.8401,0.32118 1.8777,0.32118 1.0377,0 1.8777,-0.32118 0.84,-0.32118 1.4329,-0.98825 0.593,-0.66706 0.9142,-1.68002 0.3459,-1.03765 0.3459,-2.44591 l 0,-10.54953 1.68,0 0,10.77189 q 0,1.40825 -0.3459,2.64356 -0.3212,1.2106 -1.0624,2.12473 -0.7412,0.91413 -1.9518,1.43296 -1.1859,0.51883 -2.8906,0.51883 z"
         style="font-style:normal;font-variant:normal;font-weight:300;font-stretch:normal;font-size:24.70616913px;line-height:89.99999762%;font-family:Ubuntu;-inkscape-font-specification:'Ubuntu Light';letter-spacing:-0.23999999px;fill:#4d4d4d;fill-opacity:1"
         id="path8105" />
      <path
         d="m 1573.3175,436.00271 0,1.45766 -5.4848,0 0,15.66371 -1.68,0 0,-15.66371 -5.4848,0 0,-1.45766 12.6496,0 z"
         style="font-style:normal;font-variant:normal;font-weight:300;font-stretch:normal;font-size:24.70616913px;line-height:89.99999762%;font-family:Ubuntu;-inkscape-font-specification:'Ubuntu Light';letter-spacing:-0.23999999px;fill:#4d4d4d;fill-opacity:1"
         id="path8107" />
      <path
         d="m 1575.7662,453.12408 0,-17.12137 9.8825,0 0,1.45766 -8.2025,0 0,5.95419 7.313,0 0,1.43296 -7.313,0 0,6.8189 8.8448,0 0,1.45766 -10.5248,0 z"
         style="font-style:normal;font-variant:normal;font-weight:300;font-stretch:normal;font-size:24.70616913px;line-height:89.99999762%;font-family:Ubuntu;-inkscape-font-specification:'Ubuntu Light';letter-spacing:-0.23999999px;fill:#4d4d4d;fill-opacity:1"
         id="path8109" />
      <path
         d="m 1602.8188,444.55104 q 0,2.19885 -0.6918,3.82946 -0.6918,1.63061 -1.9518,2.71768 -1.2353,1.08707 -2.9647,1.63061 -1.7294,0.54353 -3.8048,0.54353 -1.0376,0 -2.1741,-0.12353 -1.1365,-0.0988 -2.0012,-0.32118 l 0,-16.50372 q 0.8647,-0.24706 2.0012,-0.34589 1.1365,-0.12353 2.1741,-0.12353 2.0754,0 3.8048,0.54354 1.7294,0.54353 2.9647,1.63061 1.26,1.08707 1.9518,2.71767 0.6918,1.63061 0.6918,3.80475 z m -11.9084,7.09067 q 0.1482,0.0247 0.7412,0.0988 0.6176,0.0741 1.9518,0.0741 1.8529,0 3.2365,-0.49413 1.3835,-0.51883 2.3224,-1.45766 0.9388,-0.93883 1.4082,-2.27297 0.4694,-1.35884 0.4694,-3.03886 0,-1.68002 -0.4694,-3.01415 -0.4694,-1.33413 -1.4082,-2.27297 -0.9389,-0.93883 -2.3224,-1.43295 -1.3836,-0.51883 -3.2365,-0.51883 -1.3342,0 -1.9518,0.0741 -0.593,0.0741 -0.7412,0.0988 l 0,14.15663 z"
         style="font-style:normal;font-variant:normal;font-weight:300;font-stretch:normal;font-size:24.70616913px;line-height:89.99999762%;font-family:Ubuntu;-inkscape-font-specification:'Ubuntu Light';letter-spacing:-0.23999999px;fill:#4d4d4d;fill-opacity:1"
         id="path8111" />
      <path
         d="m 1464.4944,474.27256 q 2.0012,0 3.113,-0.71647 1.1117,-0.74119 1.1117,-2.3718 0,-0.93883 -0.3706,-1.55649 -0.3458,-0.64236 -0.9388,-1.06236 -0.5929,-0.44471 -1.3588,-0.74119 -0.7659,-0.32118 -1.6059,-0.66706 -1.0624,-0.42001 -1.9024,-0.86472 -0.84,-0.44471 -1.433,-0.98824 -0.5929,-0.56825 -0.9141,-1.28473 -0.2965,-0.71647 -0.2965,-1.68002 0,-2.19884 1.4577,-3.33533 1.4577,-1.13648 4.0518,-1.13648 0.6918,0 1.3588,0.0988 0.6671,0.0988 1.2354,0.27177 0.5929,0.14824 1.0623,0.34589 0.4941,0.19765 0.8153,0.42 l -0.5929,1.40825 q -0.7165,-0.49412 -1.7542,-0.79059 -1.0129,-0.29648 -2.1988,-0.29648 -0.8153,0 -1.5071,0.17295 -0.6671,0.14823 -1.1612,0.51883 -0.4941,0.34588 -0.7906,0.88942 -0.2717,0.54353 -0.2717,1.30942 0,0.7906 0.2964,1.33414 0.2965,0.54353 0.8153,0.93883 0.5436,0.3953 1.26,0.71648 0.7165,0.32118 1.5565,0.66707 1.013,0.42 1.9024,0.84001 0.9141,0.42 1.5812,0.98824 0.6671,0.56825 1.0624,1.38355 0.3953,0.8153 0.3953,2.0012 0,2.32238 -1.6306,3.48357 -1.6059,1.16119 -4.373,1.16119 -0.9883,0 -1.8036,-0.12353 -0.8153,-0.12353 -1.4576,-0.29648 -0.6424,-0.19765 -1.0871,-0.39529 -0.4447,-0.19765 -0.6918,-0.34589 l 0.5435,-1.45767 q 0.2471,0.14824 0.6671,0.34589 0.42,0.19765 0.9883,0.3953 0.5682,0.17294 1.2847,0.29647 0.7165,0.12353 1.5812,0.12353 z"
         style="font-style:normal;font-variant:normal;font-weight:300;font-stretch:normal;font-size:24.70616913px;line-height:89.99999762%;font-family:Ubuntu;-inkscape-font-specification:'Ubuntu Light';letter-spacing:-0.25px;fill:#4d4d4d;fill-opacity:1"
         id="path8113" />
      <path
         d="m 1477.3282,475.35964 0,-7.04126 q -1.7541,-2.69297 -3.2365,-5.1883 -1.4577,-2.52003 -2.7177,-4.89182 l 1.9518,0 q 1.0377,2.17414 2.273,4.42241 1.26,2.22355 2.6188,4.24946 1.3095,-2.02591 2.5695,-4.24946 1.26,-2.24827 2.3224,-4.42241 l 1.8282,0 q -1.3094,2.34709 -2.7671,4.89182 -1.4576,2.52003 -3.1624,5.13889 l 0,7.09067 -1.68,0 z"
         style="font-style:normal;font-variant:normal;font-weight:300;font-stretch:normal;font-size:24.70616913px;line-height:89.99999762%;font-family:Ubuntu;-inkscape-font-specification:'Ubuntu Light';letter-spacing:-0.25px;fill:#4d4d4d;fill-opacity:1"
         id="path8115" />
      <path
         d="m 1490.8237,474.27256 q 2.0012,0 3.113,-0.71647 1.1118,-0.74119 1.1118,-2.3718 0,-0.93883 -0.3706,-1.55649 -0.3459,-0.64236 -0.9388,-1.06236 -0.593,-0.44471 -1.3589,-0.74119 -0.7659,-0.32118 -1.6059,-0.66706 -1.0623,-0.42001 -1.9024,-0.86472 -0.84,-0.44471 -1.4329,-0.98824 -0.593,-0.56825 -0.9141,-1.28473 -0.2965,-0.71647 -0.2965,-1.68002 0,-2.19884 1.4576,-3.33533 1.4577,-1.13648 4.0519,-1.13648 0.6917,0 1.3588,0.0988 0.6671,0.0988 1.2353,0.27177 0.593,0.14824 1.0624,0.34589 0.4941,0.19765 0.8153,0.42 l -0.593,1.40825 q -0.7165,-0.49412 -1.7541,-0.79059 -1.013,-0.29648 -2.1989,-0.29648 -0.8153,0 -1.507,0.17295 -0.6671,0.14823 -1.1612,0.51883 -0.4942,0.34588 -0.7906,0.88942 -0.2718,0.54353 -0.2718,1.30942 0,0.7906 0.2965,1.33414 0.2965,0.54353 0.8153,0.93883 0.5435,0.3953 1.26,0.71648 0.7165,0.32118 1.5565,0.66707 1.0129,0.42 1.9024,0.84001 0.9141,0.42 1.5812,0.98824 0.667,0.56825 1.0623,1.38355 0.3953,0.8153 0.3953,2.0012 0,2.32238 -1.6306,3.48357 -1.6059,1.16119 -4.373,1.16119 -0.9882,0 -1.8035,-0.12353 -0.8153,-0.12353 -1.4577,-0.29648 -0.6424,-0.19765 -1.0871,-0.39529 -0.4447,-0.19765 -0.6917,-0.34589 l 0.5435,-1.45767 q 0.2471,0.14824 0.6671,0.34589 0.42,0.19765 0.9882,0.3953 0.5683,0.17294 1.2847,0.29647 0.7165,0.12353 1.5812,0.12353 z"
         style="font-style:normal;font-variant:normal;font-weight:300;font-stretch:normal;font-size:24.70616913px;line-height:89.99999762%;font-family:Ubuntu;-inkscape-font-specification:'Ubuntu Light';letter-spacing:-0.25px;fill:#4d4d4d;fill-opacity:1"
         id="path8117" />
      <path
         d="m 1510.5506,458.23826 0,1.45766 -5.4848,0 0,15.66372 -1.68,0 0,-15.66372 -5.4848,0 0,-1.45766 12.6496,0 z"
         style="font-style:normal;font-variant:normal;font-weight:300;font-stretch:normal;font-size:24.70616913px;line-height:89.99999762%;font-family:Ubuntu;-inkscape-font-specification:'Ubuntu Light';letter-spacing:-0.25px;fill:#4d4d4d;fill-opacity:1"
         id="path8119" />
      <path
         d="m 1512.9893,475.35964 0,-17.12138 9.8825,0 0,1.45766 -8.2025,0 0,5.95419 7.3131,0 0,1.43296 -7.3131,0 0,6.8189 8.8449,0 0,1.45767 -10.5249,0 z"
         style="font-style:normal;font-variant:normal;font-weight:300;font-stretch:normal;font-size:24.70616913px;line-height:89.99999762%;font-family:Ubuntu;-inkscape-font-specification:'Ubuntu Light';letter-spacing:-0.25px;fill:#4d4d4d;fill-opacity:1"
         id="path8121" />
      <path
         d="m 1534.1271,472.88902 q -0.247,-0.61766 -0.7164,-1.63061 -0.4447,-1.01295 -1.013,-2.19885 -0.5682,-1.2106 -1.1612,-2.47061 -0.5929,-1.28472 -1.1365,-2.3965 -0.5435,-1.11178 -0.9635,-1.95179 -0.42,-0.84001 -0.6177,-1.1859 -0.3211,3.08828 -0.5188,6.72008 -0.1729,3.6071 -0.3212,7.5848 l -1.6553,0 q 0.2224,-4.66947 0.4941,-8.94364 0.2965,-4.27416 0.7165,-8.17774 l 1.4824,0 q 0.7412,1.23531 1.5812,2.86592 0.84,1.6059 1.6553,3.36004 0.84,1.72943 1.6059,3.43415 0.7906,1.68002 1.3835,3.03886 0.593,-1.35884 1.3589,-3.03886 0.7906,-1.70472 1.6059,-3.43415 0.84,-1.75414 1.68,-3.36004 0.84,-1.63061 1.5812,-2.86592 l 1.4083,0 q 0.42,3.90358 0.6917,8.17774 0.2965,4.27417 0.5189,8.94364 l -1.7048,0 q -0.1482,-3.9777 -0.3459,-7.5848 -0.1729,-3.6318 -0.4941,-6.72008 -0.1976,0.34589 -0.6176,1.1859 -0.42,0.84001 -0.9636,1.95179 -0.5435,1.11178 -1.1365,2.3965 -0.5929,1.26001 -1.1611,2.47061 -0.5683,1.1859 -1.0377,2.19885 -0.4447,1.01295 -0.6918,1.63061 l -1.5071,0 z"
         style="font-style:normal;font-variant:normal;font-weight:300;font-stretch:normal;font-size:24.70616913px;line-height:89.99999762%;font-family:Ubuntu;-inkscape-font-specification:'Ubuntu Light';letter-spacing:-0.25px;fill:#4d4d4d;fill-opacity:1"
         id="path8123" />
      <path
         d="m 1551.2514,474.27256 q 2.0012,0 3.1129,-0.71647 1.1118,-0.74119 1.1118,-2.3718 0,-0.93883 -0.3706,-1.55649 -0.3459,-0.64236 -0.9388,-1.06236 -0.5929,-0.44471 -1.3588,-0.74119 -0.7659,-0.32118 -1.6059,-0.66706 -1.0624,-0.42001 -1.9024,-0.86472 -0.84,-0.44471 -1.433,-0.98824 -0.5929,-0.56825 -0.9141,-1.28473 -0.2965,-0.71647 -0.2965,-1.68002 0,-2.19884 1.4577,-3.33533 1.4577,-1.13648 4.0518,-1.13648 0.6918,0 1.3588,0.0988 0.6671,0.0988 1.2353,0.27177 0.593,0.14824 1.0624,0.34589 0.4941,0.19765 0.8153,0.42 l -0.5929,1.40825 q -0.7165,-0.49412 -1.7542,-0.79059 -1.0129,-0.29648 -2.1988,-0.29648 -0.8153,0 -1.5071,0.17295 -0.6671,0.14823 -1.1612,0.51883 -0.4941,0.34588 -0.7906,0.88942 -0.2718,0.54353 -0.2718,1.30942 0,0.7906 0.2965,1.33414 0.2965,0.54353 0.8153,0.93883 0.5436,0.3953 1.26,0.71648 0.7165,0.32118 1.5565,0.66707 1.013,0.42 1.9024,0.84001 0.9141,0.42 1.5812,0.98824 0.6671,0.56825 1.0624,1.38355 0.3953,0.8153 0.3953,2.0012 0,2.32238 -1.6306,3.48357 -1.6059,1.16119 -4.373,1.16119 -0.9883,0 -1.8036,-0.12353 -0.8153,-0.12353 -1.4577,-0.29648 -0.6423,-0.19765 -1.087,-0.39529 -0.4447,-0.19765 -0.6918,-0.34589 l 0.5435,-1.45767 q 0.2471,0.14824 0.6671,0.34589 0.42,0.19765 0.9883,0.3953 0.5682,0.17294 1.2847,0.29647 0.7165,0.12353 1.5812,0.12353 z"
         style="font-style:normal;font-variant:normal;font-weight:300;font-stretch:normal;font-size:24.70616913px;line-height:89.99999762%;font-family:Ubuntu;-inkscape-font-specification:'Ubuntu Light';letter-spacing:-0.25px;fill:#4d4d4d;fill-opacity:1"
         id="path8125" />
      <path
         d="m 1576.1763,467.25601 1.6801,0 0,7.63421 q -0.4695,0.19765 -1.853,0.49412 -1.3588,0.32118 -3.36,0.32118 -1.6801,0 -3.113,-0.59295 -1.433,-0.59294 -2.4953,-1.70472 -1.0377,-1.13649 -1.6307,-2.7918 -0.5929,-1.68002 -0.5929,-3.82945 0,-2.14944 0.6424,-3.80475 0.6423,-1.68002 1.7294,-2.7918 1.1118,-1.13649 2.5694,-1.72943 1.4577,-0.59295 3.113,-0.59295 1.9024,0 3.1377,0.42 1.2353,0.3953 1.8035,0.76589 l -0.5682,1.43296 q -0.6918,-0.49412 -1.8777,-0.7906 -1.1859,-0.32118 -2.5694,-0.32118 -1.2847,0 -2.4212,0.46942 -1.1365,0.46942 -1.9765,1.40825 -0.84,0.93884 -1.3341,2.32238 -0.4695,1.38355 -0.4695,3.21181 0,1.70472 0.3953,3.08827 0.3953,1.35884 1.1859,2.34708 0.8153,0.96354 2.0012,1.48237 1.1859,0.51883 2.7424,0.51883 1.26,0 2.1,-0.12353 0.8648,-0.14824 1.1612,-0.27177 l 0,-6.57184 z"
         style="font-style:normal;font-variant:normal;font-weight:300;font-stretch:normal;font-size:24.70616913px;line-height:89.99999762%;font-family:Ubuntu;-inkscape-font-specification:'Ubuntu Light';letter-spacing:-0.25px;fill:#4d4d4d;fill-opacity:1"
         id="path8127" />
      <path
         d="m 1592.9292,463.37714 q 0,1.92709 -1.013,3.03886 -1.0129,1.11178 -2.6682,1.6059 0.3953,0.49413 1.0129,1.33414 0.6424,0.84001 1.3095,1.85296 0.667,0.98825 1.3094,2.07532 0.6424,1.08707 1.0871,2.07532 l -1.8036,0 q -0.5188,-0.98825 -1.1365,-1.9765 -0.5929,-0.98824 -1.2353,-1.90237 -0.6176,-0.93884 -1.2106,-1.72943 -0.5929,-0.7906 -1.0376,-1.38355 -0.7906,0.0741 -1.5812,0.0741 l -2.7671,0 0,6.91773 -1.68,0 0,-16.8002 q 0.8894,-0.24706 2.0753,-0.34589 1.2106,-0.12353 2.2235,-0.12353 3.533,0 5.3119,1.33414 1.8035,1.33413 1.8035,3.95298 z m -6.9177,-3.82945 q -0.9389,0 -1.6553,0.0741 -0.6918,0.0494 -1.1612,0.0988 l 0,7.28832 2.3224,0 q 1.1611,0 2.1988,-0.0988 1.0377,-0.12353 1.8036,-0.49413 0.7658,-0.3953 1.2106,-1.11177 0.4447,-0.71648 0.4447,-1.95179 0,-1.13649 -0.4447,-1.87767 -0.4448,-0.74119 -1.1612,-1.16119 -0.7165,-0.44471 -1.6553,-0.59295 -0.9142,-0.17294 -1.9024,-0.17294 z"
         style="font-style:normal;font-variant:normal;font-weight:300;font-stretch:normal;font-size:24.70616913px;line-height:89.99999762%;font-family:Ubuntu;-inkscape-font-specification:'Ubuntu Light';letter-spacing:-0.25px;fill:#4d4d4d;fill-opacity:1"
         id="path8129" />
      <path
         d="m 1611.8805,466.7866 q 0,2.19884 -0.6423,3.87886 -0.6424,1.68002 -1.7542,2.81651 -1.087,1.11177 -2.5447,1.68002 -1.4577,0.56824 -3.0883,0.56824 -1.6306,0 -3.0882,-0.56824 -1.4577,-0.56825 -2.5695,-1.68002 -1.0871,-1.13649 -1.7294,-2.81651 -0.6424,-1.68002 -0.6424,-3.87886 0,-2.19885 0.6424,-3.85417 0.6423,-1.68002 1.7294,-2.79179 1.1118,-1.13649 2.5695,-1.70473 1.4576,-0.56824 3.0882,-0.56824 1.6306,0 3.0883,0.56824 1.4577,0.56824 2.5447,1.70473 1.1118,1.11177 1.7542,2.79179 0.6423,1.65532 0.6423,3.85417 z m -1.7788,0 q 0,-1.72944 -0.4447,-3.08828 -0.4447,-1.38354 -1.26,-2.34708 -0.8153,-0.96354 -1.9765,-1.45767 -1.1365,-0.51883 -2.5695,-0.51883 -1.4329,0 -2.5941,0.51883 -1.1365,0.49413 -1.9518,1.45767 -0.8153,0.96354 -1.26,2.34708 -0.4447,1.35884 -0.4447,3.08828 0,1.72943 0.4447,3.11297 0.4447,1.35884 1.26,2.32238 0.8153,0.96354 1.9518,1.48237 1.1612,0.51883 2.5941,0.51883 1.433,0 2.5695,-0.51883 1.1612,-0.51883 1.9765,-1.48237 0.8153,-0.96354 1.26,-2.32238 0.4447,-1.38354 0.4447,-3.11297 z"
         style="font-style:normal;font-variant:normal;font-weight:300;font-stretch:normal;font-size:24.70616913px;line-height:89.99999762%;font-family:Ubuntu;-inkscape-font-specification:'Ubuntu Light';letter-spacing:-0.25px;fill:#4d4d4d;fill-opacity:1"
         id="path8131" />
      <path
         d="m 1621.5485,475.73023 q -1.7047,0 -2.9153,-0.51883 -1.1859,-0.51883 -1.9271,-1.43296 -0.7412,-0.91413 -1.0871,-2.12473 -0.3212,-1.23531 -0.3212,-2.64356 l 0,-10.77189 1.6801,0 0,10.54954 q 0,1.40825 0.3211,2.44591 0.3459,1.01295 0.9389,1.68002 0.5929,0.66706 1.4329,0.98824 0.84,0.32118 1.8777,0.32118 1.0377,0 1.8777,-0.32118 0.84,-0.32118 1.4329,-0.98824 0.593,-0.66707 0.9142,-1.68002 0.3458,-1.03766 0.3458,-2.44591 l 0,-10.54954 1.6801,0 0,10.77189 q 0,1.40825 -0.3459,2.64356 -0.3212,1.2106 -1.0624,2.12473 -0.7412,0.91413 -1.9518,1.43296 -1.1859,0.51883 -2.8906,0.51883 z"
         style="font-style:normal;font-variant:normal;font-weight:300;font-stretch:normal;font-size:24.70616913px;line-height:89.99999762%;font-family:Ubuntu;-inkscape-font-specification:'Ubuntu Light';letter-spacing:-0.25px;fill:#4d4d4d;fill-opacity:1"
         id="path8133" />
      <path
         d="m 1636.238,458.09002 q 3.6318,0 5.4107,1.38355 1.7788,1.38354 1.7788,3.92828 0,1.45766 -0.5188,2.49532 -0.5188,1.01296 -1.4824,1.65532 -0.9635,0.61765 -2.3718,0.91412 -1.3835,0.27177 -3.1377,0.27177 l -2.3223,0 0,6.62126 -1.6801,0 0,-16.8002 q 0.8895,-0.24706 2.0754,-0.34589 1.2106,-0.12353 2.2482,-0.12353 z m 0.074,1.45767 q -0.9388,0 -1.6059,0.0741 -0.6423,0.0494 -1.1117,0.0988 l 0,7.56009 2.1247,0 q 1.3588,0 2.4459,-0.14824 1.1118,-0.17294 1.8777,-0.59295 0.7906,-0.44471 1.2106,-1.2106 0.42,-0.76589 0.42,-1.95179 0,-1.13648 -0.4694,-1.87766 -0.4447,-0.74119 -1.2106,-1.16119 -0.7412,-0.44472 -1.7048,-0.61766 -0.9635,-0.17294 -1.9765,-0.17294 z"
         style="font-style:normal;font-variant:normal;font-weight:300;font-stretch:normal;font-size:24.70616913px;line-height:89.99999762%;font-family:Ubuntu;-inkscape-font-specification:'Ubuntu Light';letter-spacing:-0.25px;fill:#4d4d4d;fill-opacity:1"
         id="path8135" />
    </g>
    <g
       style="font-style:normal;font-weight:normal;font-size:65.48678589px;line-height:125%;font-family:sans-serif;letter-spacing:0px;word-spacing:0px;fill:#003b5b;fill-opacity:1;stroke:none;stroke-width:1px;stroke-linecap:butt;stroke-linejoin:miter;stroke-opacity:1"
       id="text4370">
      <path
         d="m 1573.5429,378.9624 q -1.1133,-0.91682 -3.2088,-1.76814 -2.0956,-0.85133 -4.5841,-0.85133 -2.6195,0 -4.5186,0.9823 -1.8336,0.91681 -3.0124,2.61947 -1.1788,1.63717 -1.7026,3.92921 -0.5239,2.29204 -0.5239,4.91151 0,5.95929 2.9469,9.23363 2.9469,3.20886 7.8584,3.20886 2.4885,0 4.1256,-0.19646 1.7027,-0.26195 2.6195,-0.5239 l 0,-21.54515 z m 0,-22.92038 6.0903,-1.04778 0,49.83544 q -2.0956,0.58938 -5.3699,1.17876 -3.2744,0.58938 -7.531,0.58938 -3.9292,0 -7.0726,-1.24425 -3.1433,-1.24425 -5.3699,-3.53628 -2.2265,-2.29204 -3.4708,-5.56638 -1.1788,-3.33983 -1.1788,-7.46549 0,-3.92921 0.9823,-7.20355 1.0478,-3.27434 3.0124,-5.63186 1.9646,-2.35753 4.7806,-3.66726 2.8814,-1.30974 6.5486,-1.30974 2.947,0 5.1735,0.78584 2.292,0.78584 3.4053,1.5062 l 0,-17.22303 z"
         style="font-style:normal;font-variant:normal;font-weight:normal;font-stretch:normal;font-family:Ubuntu;-inkscape-font-specification:Ubuntu;letter-spacing:-1.63716996px;fill:#003b5b;fill-opacity:1"
         id="path8084" />
      <path
         d="m 1596.4531,401.42437 q 3.7327,0 5.5009,-0.98231 1.8336,-0.9823 1.8336,-3.14336 0,-2.22655 -1.7682,-3.53629 -1.7681,-1.30973 -5.8283,-2.9469 -1.9646,-0.78584 -3.7982,-1.57169 -1.7682,-0.85132 -3.0779,-1.9646 -1.3097,-1.11327 -2.0956,-2.68496 -0.7858,-1.57168 -0.7858,-3.86372 0,-4.51859 3.3398,-7.13806 3.3398,-2.68496 9.1027,-2.68496 1.4407,0 2.8814,0.19646 1.4407,0.13098 2.685,0.39293 1.2442,0.19646 2.161,0.4584 0.9823,0.26195 1.5062,0.45841 l -1.1133,5.23894 q -0.9823,-0.52389 -3.0778,-1.04779 -2.0956,-0.58938 -5.0425,-0.58938 -2.554,0 -4.4531,1.04779 -1.8991,0.9823 -1.8991,3.14337 0,1.11327 0.3929,1.9646 0.4584,0.85133 1.3097,1.57168 0.9168,0.65487 2.2266,1.24425 1.3097,0.58938 3.1433,1.24425 2.423,0.91682 4.3222,1.83363 1.8991,0.85133 3.2088,2.03009 1.3752,1.17876 2.0956,2.88142 0.7203,1.63717 0.7203,4.06018 0,4.71505 -3.5362,7.13806 -3.4708,2.42301 -9.954,2.42301 -4.5186,0 -7.0726,-0.78584 -2.554,-0.72035 -3.4708,-1.11327 l 1.1133,-5.23895 q 1.0478,0.39292 3.3398,1.17877 2.292,0.78584 6.0903,0.78584 z"
         style="font-style:normal;font-variant:normal;font-weight:normal;font-stretch:normal;font-family:Ubuntu;-inkscape-font-specification:Ubuntu;letter-spacing:-1.63716996px;fill:#003b5b;fill-opacity:1"
         id="path8086" />
      <path
         d="m 1637.4028,402.40667 q -0.7859,0.52389 -3.0779,1.37522 -2.2266,0.78584 -5.239,0.78584 -3.0778,0 -5.8283,-0.9823 -2.6849,-0.9823 -4.715,-3.01239 -2.0301,-2.09558 -3.2089,-5.17346 -1.1787,-3.07788 -1.1787,-7.33452 0,-3.73274 1.1132,-6.81062 1.1133,-3.14337 3.2089,-5.36992 2.1611,-2.29204 5.2389,-3.53629 3.0779,-1.30973 6.9416,-1.30973 4.2567,0 7.4,0.65487 3.2089,0.58938 5.37,1.11327 l 0,30.38587 q 0,7.85841 -4.0602,11.3947 -4.0602,3.53629 -12.3115,3.53629 -3.2089,0 -6.0903,-0.5239 -2.8159,-0.52389 -4.9115,-1.24425 l 1.1133,-5.30443 q 1.8336,0.72036 4.4531,1.24425 2.6849,0.58938 5.5663,0.58938 5.4354,0 7.793,-2.16106 2.423,-2.16106 2.423,-6.87611 l 0,-1.44071 z m -0.066,-25.2779 q -0.9168,-0.26195 -2.4885,-0.45841 -1.5062,-0.26195 -4.1257,-0.26195 -4.9115,0 -7.5965,3.20886 -2.6194,3.20885 -2.6194,8.51328 0,2.9469 0.7203,5.04248 0.7859,2.09558 2.0301,3.4708 1.3098,1.37522 2.9469,2.03009 1.7027,0.65487 3.4708,0.65487 2.423,0 4.4531,-0.65487 2.0301,-0.72035 3.2089,-1.63717 l 0,-19.90798 z"
         style="font-style:normal;font-variant:normal;font-weight:normal;font-stretch:normal;font-family:Ubuntu;-inkscape-font-specification:Ubuntu;letter-spacing:-1.63716996px;fill:#003b5b;fill-opacity:1"
         id="path8088" />
    </g>
    <g
       transform="matrix(1.6321328,0,0,1.6321328,845.09473,94.156591)"
       id="g4380">
      <g
         transform="matrix(1.0729624,0,0,1.0729624,59.139681,-285.83142)"
         style="fill:#003b5b;fill-opacity:1"
         id="g4382">
        <path
           inkscape:connector-curvature="0"
           style="fill:#003b5b;fill-opacity:1;stroke:none;stroke-width:1;stroke-linecap:butt;stroke-miterlimit:4;stroke-dasharray:none;stroke-dashoffset:0"
           d="m 314.77614,434.3903 c -0.17434,1.93075 -2.27967,3.51607 -4.67707,3.49179 -2.37471,-0.024 -4.04473,-1.62047 -3.75759,-3.51823 0.27945,-1.84706 2.32132,-3.31498 4.58571,-3.32293 2.28503,-0.008 4.01856,1.47106 3.84895,3.34937 0,0 0,0 0,0"
           id="path4384" />
        <path
           inkscape:connector-curvature="0"
           style="fill:#003b5b;fill-opacity:1;stroke:none;stroke-width:1;stroke-linecap:butt;stroke-miterlimit:4;stroke-dasharray:none;stroke-dashoffset:0"
           d="m 321.29386,425.88526 c -0.0791,1.71977 -2.0293,3.1616 -4.3349,3.17858 -2.28486,0.0168 -3.9696,-1.37534 -3.78591,-3.06894 0.17904,-1.65057 2.07643,-2.99214 4.25893,-3.03438 2.20139,-0.0426 3.93896,1.24935 3.86188,2.92474 0,0 0,0 0,0"
           id="path4386" />
        <path
           inkscape:connector-curvature="0"
           style="fill:#003b5b;fill-opacity:1;stroke:none;stroke-width:1;stroke-linecap:butt;stroke-miterlimit:4;stroke-dasharray:none;stroke-dashoffset:0"
           d="m 327.17733,434.42917 c -10e-4,1.9793 -2.06241,3.60502 -4.58114,3.57951 -2.49428,-0.0253 -4.39412,-1.6626 -4.26846,-3.60725 0.12223,-1.89147 2.12637,-3.39396 4.49912,-3.4023 2.39486,-0.008 4.35172,1.50579 4.35048,3.43004 0,0 0,0 0,0"
           id="path4388" />
      </g>
      <g
         style="fill:#7083a2;fill-opacity:1"
         transform="matrix(1.0729624,0,0,1.0729624,59.139681,-285.83142)"
         id="g4390">
        <path
           id="path4392"
           d="m 321.66303,417.86161 c -0.0696,1.51254 -1.89438,2.80851 -4.05752,2.85988 -2.14489,0.0509 -3.73627,-1.14504 -3.57438,-2.63751 0.15802,-1.45683 1.93669,-2.66924 3.99112,-2.73968 2.07115,-0.071 3.70868,1.04143 3.64078,2.51731 0,0 0,0 0,0"
           style="fill:#7083a2;fill-opacity:1;stroke:none;stroke-width:1;stroke-linecap:butt;stroke-miterlimit:4;stroke-dasharray:none;stroke-dashoffset:0"
           inkscape:connector-curvature="0" />
        <path
           inkscape:connector-curvature="0"
           style="fill:#7083a2;fill-opacity:1;stroke:none;stroke-width:1;stroke-linecap:butt;stroke-miterlimit:4;stroke-dasharray:none;stroke-dashoffset:0"
           d="m 336.59858,422.30944 c 1.30126,1.43058 0.74018,3.34914 -1.29624,4.25364 -2.04776,0.90954 -4.72506,0.41267 -5.93863,-1.07644 -1.1807,-1.44877 -0.51764,-3.2885 1.44292,-4.14019 1.95023,-0.8472 4.52559,-0.42922 5.79195,0.96299 0,0 0,0 0,0"
           id="path4394"
           inkscape:transform-center-y="-24.24365"
           inkscape:transform-center-x="-41.991235" />
        <path
           inkscape:transform-center-x="-41.991233"
           inkscape:transform-center-y="24.243654"
           id="path4396"
           d="m 337.96583,440.80838 c -1.22705,1.88501 -4.20327,2.48909 -6.57161,1.33824 -2.31254,-1.12374 -3.1065,-3.47396 -1.84555,-5.2404 1.2359,-1.73135 4.03052,-2.30855 6.31047,-1.29955 2.33292,1.03245 3.30831,3.35578 2.10669,5.20171 0,0 0,0 0,0"
           style="fill:#7083a2;fill-opacity:1;stroke:none;stroke-width:1;stroke-linecap:butt;stroke-miterlimit:4;stroke-dasharray:none;stroke-dashoffset:0"
           inkscape:connector-curvature="0" />
        <path
           inkscape:connector-curvature="0"
           style="fill:#7083a2;fill-opacity:1;stroke:none;stroke-width:1;stroke-linecap:butt;stroke-miterlimit:4;stroke-dasharray:none;stroke-dashoffset:0"
           d="m 315.22896,451.38615 c -2.65724,-0.0975 -4.58396,-2.08433 -4.33552,-4.3749 0.1167,-1.07582 0.70788,-2.08166 1.63998,-2.80446 0.92597,-0.71805 2.12253,-1.10555 3.33573,-1.08086 2.5451,0.0518 4.54483,1.88358 4.44047,4.15175 -0.10759,2.33832 -2.39524,4.207 -5.08065,4.10847 0,0 0,0 0,0"
           id="path4398"
           inkscape:transform-center-y="48.4873" />
        <path
           inkscape:transform-center-y="24.243654"
           id="path4400"
           d="m 295.92235,440.17245 c -0.76023,-1.72095 0.37949,-3.83677 2.51564,-4.76474 2.12441,-0.92286 4.52023,-0.3592 5.38341,1.29586 0.88805,1.70275 -0.16986,3.91761 -2.39801,4.90727 -2.24114,0.99543 -4.71869,0.33264 -5.50104,-1.43839 0,0 0,0 0,0"
           style="fill:#7083a2;fill-opacity:1;stroke:none;stroke-width:1;stroke-linecap:butt;stroke-miterlimit:4;stroke-dasharray:none;stroke-dashoffset:0"
           inkscape:connector-curvature="0"
           inkscape:transform-center-x="41.99123" />
        <path
           inkscape:transform-center-x="41.991236"
           inkscape:connector-curvature="0"
           style="fill:#7083a2;fill-opacity:1;stroke:none;stroke-width:1;stroke-linecap:butt;stroke-miterlimit:4;stroke-dasharray:none;stroke-dashoffset:0"
           d="m 299.64769,423.0442 c 1.29926,-1.35066 3.63853,-1.85282 5.27284,-1.12954 1.66638,0.73746 2.00899,2.48195 0.71512,3.90555 -1.31686,1.44887 -3.78208,1.97165 -5.454,1.15921 -1.63873,-0.79631 -1.85547,-2.56142 -0.53396,-3.93522 0,0 0,0 0,0"
           id="path4402"
           inkscape:transform-center-y="-24.243648" />
      </g>
    </g>
    <path
       style="opacity:1;fill:#333333;fill-opacity:1;stroke:none;stroke-width:0.5;stroke-linecap:butt;stroke-miterlimit:4;stroke-dasharray:none;stroke-dashoffset:0;stroke-opacity:1"
       d="m 1643.3718,427.13896 0,1.6415 -184.0653,0 0,-1.6415 z"
       id="rect4360"
       inkscape:connector-curvature="0" />
  </g>
</svg>
